<?xml version="1.0" encoding="utf-8"?>
<!-- Generator: Adobe Illustrator 27.2.0, SVG Export Plug-In . SVG Version: 6.00 Build 0)  -->
<svg version="1.1" id="Layer_1" xmlns="http://www.w3.org/2000/svg" xmlns:xlink="http://www.w3.org/1999/xlink" x="0px" y="0px"
	 viewBox="0 0 216.8 81.2" style="enable-background:new 0 0 216.8 81.2;" xml:space="preserve">
<style type="text/css">
	.st0{fill:#3E3F3F;}
	.st1{fill:none;stroke:#3E3F3F;stroke-miterlimit:10;}
	.st2{fill:none;stroke:#3EFF52;stroke-miterlimit:10;}
</style>
<g>
	<path class="st0" d="M26.6-32.5c0-0.1,0-0.2,0-0.3c-0.5-1-0.9-2-1.3-3c-0.1-0.2-0.2-0.5-0.3-0.7c-4.1,9.8-8.2,19.6-12.3,29.3
		c1.1,0,2.2,0,3.3,0v-0.1c0.7-1.6,1.4-3.3,2.1-4.9c1.5-3.5,3-7.1,4.5-10.7C23.9-26.1,25.3-29.3,26.6-32.5z"/>
	<path class="st0" d="M25.7-38.2c2.6,6.4,5.3,12.7,7.9,19.1c1.1,0,2.2,0,3.3,0c-3.2-7.7-6.4-15.3-9.6-23
		C26.7-40.8,26.2-39.5,25.7-38.2z"/>
	<path class="st0" d="M27.1-30.9c-1.1,2.8-2.3,5.5-3.4,8.3c-0.5,1.1-1,2.2-1.4,3.3c0,0.1-0.1,0.1,0,0.2c1.7,0,3.3,0,5,0
		c0-1.7,0-3.3,0-4.9c0.3,0,0.5,0,0.7-0.1c0.2,0,0.5,0,0.7,0s0.4,0,0.7,0s0.5,0,0.8,0c-1-2.3-2-4.7-3-7.1
		C27.2-31.1,27.1-31,27.1-30.9z"/>
	<path class="st0" d="M47.9-23.3c-1,1.2-2.2,1.8-3.8,1.8c-2.8,0-4.9-2.3-4.9-5.4c0-3.1,2.2-5.4,4.9-5.4c1.3,0,2.4,0.6,3.1,1.5
		l0.3,0.4l2.4-1.6l-0.3-0.4c-1.2-1.6-3.1-2.5-5.4-2.5c-2.1,0-4.1,0.8-5.5,2.2c-1.5,1.5-2.3,3.6-2.2,5.9c0,4.5,3.3,7.9,7.7,7.9
		c2.5,0,4.4-0.9,5.7-2.7l0.3-0.4l-2-1.7L47.9-23.3z"/>
	<polygon class="st0" points="51.1,-32.3 55.9,-32.3 55.9,-19 58.7,-19 58.7,-32.3 63.6,-32.3 63.6,-35 51.1,-35 	"/>
	<path class="st0" d="M72.2-35c-4.6,0-7.9,3.3-7.9,7.9c0,4.6,3.3,7.9,7.9,7.9c4.6,0,7.9-3.3,7.9-7.9C80-31.6,76.7-35,72.2-35z
		 M72.2-21.6c-2.9,0-5.1-2.3-5.1-5.4c0-3.2,2.1-5.4,5.1-5.4c2.9,0,5.1,2.3,5.1,5.4C77.2-23.9,75.1-21.6,72.2-21.6z"/>
	<polygon class="st0" points="92.3,-35 92.3,-23.5 84.3,-35 81.3,-35 81.3,-19 84.1,-19 84.1,-30.4 92.1,-19.1 95.1,-19.1 95.1,-35 
			"/>
</g>
<g>
	<path class="st0" d="M146.4-32.5c0-0.1,0-0.2,0-0.3c-0.5-1-0.9-2-1.3-3c-0.1-0.2-0.2-0.5-0.3-0.7c-4.1,9.8-8.2,19.6-12.3,29.3
		c1.1,0,2.2,0,3.3,0v-0.1c0.7-1.6,1.4-3.3,2.1-4.9c1.5-3.5,3-7.1,4.5-10.7C143.7-26.1,145.1-29.3,146.4-32.5z"/>
	<path class="st0" d="M145.5-38.2c2.6,6.4,5.3,12.7,7.9,19.1c1.1,0,2.2,0,3.3,0c-3.2-7.7-6.4-15.3-9.6-23
		C146.5-40.8,146-39.5,145.5-38.2z"/>
	<path class="st0" d="M146.9-30.9c-1.1,2.8-2.3,5.5-3.4,8.3c-0.5,1.1-1,2.2-1.4,3.3c0,0.1-0.1,0.1,0,0.2c1.7,0,3.3,0,5,0
		c0-1.7,0-3.3,0-4.9c0.3,0,0.5,0,0.7-0.1c0.2,0,0.5,0,0.7,0s0.4,0,0.7,0s0.5,0,0.8,0c-1-2.3-2-4.7-3-7.1
		C147-31.1,146.9-31,146.9-30.9z"/>
	<rect x="178.1" y="-34.6" class="st0" width="2.8" height="15.8"/>
	<path class="st0" d="M188.4-28.1c-2.4-0.8-2.8-1.3-2.8-2.2c0-1.5,1.4-2,2.7-2c1,0,1.8,0.4,2.3,1.1l0.3,0.5l2.3-2l-0.3-0.4
		c-1.1-1.3-2.6-1.9-4.5-1.9c-2.7,0-5.5,1.5-5.5,4.8c0,2.8,1.9,3.9,4,4.6l0.4,0.1c2.5,0.8,3.1,1.1,3.1,2.4c0,1.3-1.4,2.1-2.7,2.1
		c-1.2,0-2.2-0.5-2.7-1.4l-0.3-0.5l-2.3,1.9l0.3,0.4c1,1.4,2.8,2.3,5,2.3c2.8,0,5.7-1.5,5.7-4.8C193.2-26.6,190.6-27.4,188.4-28.1z"
		/>
	<polygon class="st0" points="164.5,-25.7 158.3,-18.8 161.1,-18.8 165.8,-24.1 170.3,-18.8 173.1,-18.8 150.7,-42.1 	"/>
	<polygon class="st0" points="175.1,-34.6 172.3,-34.6 166.7,-28.2 167.7,-27.2 151.7,-42.1 174.1,-18.8 176.8,-18.8 168.2,-26.8 	
		"/>
</g>
<g>
	<line class="st1" x1="113.4" y1="20.4" x2="113.4" y2="60.8"/>
	<g>
		<path class="st0" d="M26.6,32.7c0-0.1,0-0.2,0-0.3c-0.5-1-0.9-2-1.3-3c-0.1-0.2-0.2-0.5-0.3-0.7c-4.1,9.8-8.2,19.6-12.3,29.3
			c1.1,0,2.2,0,3.3,0v-0.1c0.7-1.6,1.4-3.3,2.1-4.9c1.5-3.5,3-7.1,4.5-10.7C23.9,39.1,25.3,35.9,26.6,32.7z"/>
		<path class="st0" d="M25.7,27c2.6,6.4,5.3,12.7,7.9,19.1c1.1,0,2.2,0,3.3,0c-3.2-7.7-6.4-15.3-9.6-23C26.7,24.4,26.2,25.7,25.7,27
			z"/>
		<path class="st0" d="M27.1,34.3c-1.1,2.8-2.3,5.5-3.4,8.3c-0.5,1.1-1,2.2-1.4,3.3c0,0.1-0.1,0.1,0,0.2c1.7,0,3.3,0,5,0
			c0-1.7,0-3.3,0-4.9c0.3,0,0.5,0,0.7-0.1c0.2,0,0.5,0,0.7,0s0.4,0,0.7,0s0.5,0,0.8,0c-1-2.3-2-4.7-3-7.1
			C27.2,34.1,27.1,34.2,27.1,34.3z"/>
		<path class="st0" d="M47.9,41.9c-1,1.2-2.2,1.8-3.8,1.8c-2.8,0-4.9-2.3-4.9-5.4c0-3.1,2.2-5.4,4.9-5.4c1.3,0,2.4,0.6,3.1,1.5
			l0.3,0.4l2.4-1.6l-0.3-0.4c-1.2-1.6-3.1-2.5-5.4-2.5c-2.1,0-4.1,0.8-5.5,2.2c-1.5,1.5-2.3,3.6-2.2,5.9c0,4.5,3.3,7.9,7.7,7.9
			c2.5,0,4.4-0.9,5.7-2.7l0.3-0.4l-2-1.7L47.9,41.9z"/>
		<polygon class="st0" points="51.1,32.9 55.9,32.9 55.9,46.2 58.7,46.2 58.7,32.9 63.6,32.9 63.6,30.2 51.1,30.2 		"/>
		<path class="st0" d="M72.2,30.2c-4.6,0-7.9,3.3-7.9,7.9c0,4.6,3.3,7.9,7.9,7.9c4.6,0,7.9-3.3,7.9-7.9C80,33.6,76.7,30.2,72.2,30.2
			z M72.2,43.6c-2.9,0-5.1-2.3-5.1-5.4c0-3.2,2.1-5.4,5.1-5.4c2.9,0,5.1,2.3,5.1,5.4C77.2,41.3,75.1,43.6,72.2,43.6z"/>
		<polygon class="st0" points="92.3,30.2 92.3,41.7 84.3,30.2 81.3,30.2 81.3,46.2 84.1,46.2 84.1,34.8 92.1,46.1 95.1,46.1 
			95.1,30.2 		"/>
	</g>
	<g>
		<path class="st0" d="M146.4,32.8c0-0.1,0-0.2,0-0.3c-0.5-1-0.9-2-1.3-3c-0.1-0.2-0.2-0.5-0.3-0.7c-4.1,9.8-8.2,19.6-12.3,29.3
			c1.1,0,2.2,0,3.3,0V58c0.7-1.6,1.4-3.3,2.1-4.9c1.5-3.5,3-7.1,4.5-10.7C143.7,39.2,145.1,36,146.4,32.8z"/>
		<path class="st0" d="M145.5,27.1c2.6,6.4,5.3,12.7,7.9,19.1c1.1,0,2.2,0,3.3,0c-3.2-7.7-6.4-15.3-9.6-23
			C146.5,24.5,146,25.8,145.5,27.1z"/>
		<path class="st0" d="M146.9,34.4c-1.1,2.8-2.3,5.5-3.4,8.3c-0.5,1.1-1,2.2-1.4,3.3c0,0.1-0.1,0.1,0,0.2c1.7,0,3.3,0,5,0
			c0-1.7,0-3.3,0-4.9c0.3,0,0.5,0,0.7-0.1c0.2,0,0.5,0,0.7,0s0.4,0,0.7,0s0.5,0,0.8,0c-1-2.3-2-4.7-3-7.1
			C147,34.2,146.9,34.3,146.9,34.4z"/>
		<rect x="178.1" y="30.6" class="st0" width="2.8" height="15.8"/>
		<path class="st0" d="M188.4,37.1c-2.4-0.8-2.8-1.3-2.8-2.2c0-1.5,1.4-2,2.7-2c1,0,1.8,0.4,2.3,1.1l0.3,0.5l2.3-2l-0.3-0.4
			c-1.1-1.3-2.6-1.9-4.5-1.9c-2.7,0-5.5,1.5-5.5,4.8c0,2.8,1.9,3.9,4,4.6l0.4,0.1c2.5,0.8,3.1,1.1,3.1,2.4c0,1.3-1.4,2.1-2.7,2.1
			c-1.2,0-2.2-0.5-2.7-1.4l-0.3-0.5l-2.3,1.9l0.3,0.4c1,1.4,2.8,2.3,5,2.3c2.8,0,5.7-1.5,5.7-4.8C193.2,38.6,190.6,37.8,188.4,37.1z
			"/>
		<polygon class="st0" points="164.5,39.5 158.3,46.4 161.1,46.4 165.8,41.1 170.3,46.4 173.1,46.4 150.7,23.1 		"/>
		<polygon class="st0" points="175.1,30.6 172.3,30.6 166.7,37 167.7,38 151.7,23.1 174.1,46.4 176.8,46.4 168.2,38.4 		"/>
	</g>
</g>
<g>
	<line class="st1" x1="108.4" y1="103.6" x2="108.4" y2="144"/>
	<g>
		<g>
			<path class="st0" d="M26.6,116c0-0.1,0-0.2,0-0.3c-0.5-1-0.9-2-1.3-3c-0.1-0.2-0.2-0.5-0.3-0.7c-4.1,9.8-8.2,19.6-12.3,29.3
				c1.1,0,2.2,0,3.3,0v-0.1c0.7-1.6,1.4-3.3,2.1-4.9c1.5-3.5,3-7.1,4.5-10.7C23.9,122.4,25.3,119.2,26.6,116z"/>
			<path class="st0" d="M25.7,110.3c2.6,6.4,5.3,12.7,7.9,19.1c1.1,0,2.2,0,3.3,0c-3.2-7.7-6.4-15.3-9.6-23
				C26.7,107.7,26.2,109,25.7,110.3z"/>
			<path class="st0" d="M27.1,117.6c-1.1,2.8-2.3,5.5-3.4,8.3c-0.5,1.1-1,2.2-1.4,3.3c0,0.1-0.1,0.1,0,0.2c1.7,0,3.3,0,5,0
				c0-1.7,0-3.3,0-4.9c0.3,0,0.5,0,0.7-0.1c0.2,0,0.5,0,0.7,0s0.4,0,0.7,0s0.5,0,0.8,0c-1-2.3-2-4.7-3-7.1
				C27.2,117.4,27.1,117.5,27.1,117.6z"/>
			<path class="st0" d="M47.9,125.2c-1,1.2-2.2,1.8-3.8,1.8c-2.8,0-4.9-2.3-4.9-5.4c0-3.1,2.2-5.4,4.9-5.4c1.3,0,2.4,0.6,3.1,1.5
				l0.3,0.4l2.4-1.6l-0.3-0.4c-1.2-1.6-3.1-2.5-5.4-2.5c-2.1,0-4.1,0.8-5.5,2.2c-1.5,1.5-2.3,3.6-2.2,5.9c0,4.5,3.3,7.9,7.7,7.9
				c2.5,0,4.4-0.9,5.7-2.7l0.3-0.4l-2-1.7L47.9,125.2z"/>
			<polygon class="st0" points="51.1,116.1 55.9,116.1 55.9,129.4 58.7,129.4 58.7,116.1 63.6,116.1 63.6,113.5 51.1,113.5 			"/>
			<path class="st0" d="M72.2,113.5c-4.6,0-7.9,3.3-7.9,7.9c0,4.6,3.3,7.9,7.9,7.9c4.6,0,7.9-3.3,7.9-7.9
				C80,116.8,76.7,113.5,72.2,113.5z M72.2,126.9c-2.9,0-5.1-2.3-5.1-5.4c0-3.2,2.1-5.4,5.1-5.4c2.9,0,5.1,2.3,5.1,5.4
				C77.2,124.6,75.1,126.9,72.2,126.9z"/>
			<polygon class="st0" points="92.3,113.5 92.3,124.9 84.3,113.5 81.3,113.5 81.3,129.4 84.1,129.4 84.1,118 92.1,129.4 
				95.1,129.4 95.1,113.5 			"/>
		</g>
		<rect x="9.7" y="103.6" class="st2" width="88.3" height="40.4"/>
	</g>
	<g>
		<g>
			<path class="st0" d="M146.4,116c0-0.1,0-0.2,0-0.3c-0.5-1-0.9-2-1.3-3c-0.1-0.2-0.2-0.5-0.3-0.7c-4.1,9.8-8.2,19.6-12.3,29.3
				c1.1,0,2.2,0,3.3,0v-0.1c0.7-1.6,1.4-3.3,2.1-4.9c1.5-3.5,3-7.1,4.5-10.7C143.7,122.4,145.1,119.2,146.4,116z"/>
			<path class="st0" d="M145.5,110.3c2.6,6.4,5.3,12.7,7.9,19.1c1.1,0,2.2,0,3.3,0c-3.2-7.7-6.4-15.3-9.6-23
				C146.5,107.7,146,109,145.5,110.3z"/>
			<path class="st0" d="M146.9,117.6c-1.1,2.8-2.3,5.5-3.4,8.3c-0.5,1.1-1,2.2-1.4,3.3c0,0.1-0.1,0.1,0,0.2c1.7,0,3.3,0,5,0
				c0-1.7,0-3.3,0-4.9c0.3,0,0.5,0,0.7-0.1c0.2,0,0.5,0,0.7,0s0.4,0,0.7,0s0.5,0,0.8,0c-1-2.3-2-4.7-3-7.1
				C147,117.4,146.9,117.5,146.9,117.6z"/>
			<rect x="178.1" y="113.8" class="st0" width="2.8" height="15.8"/>
			<path class="st0" d="M188.4,120.3c-2.4-0.8-2.8-1.3-2.8-2.2c0-1.5,1.4-2,2.7-2c1,0,1.8,0.4,2.3,1.1l0.3,0.5l2.3-2l-0.3-0.4
				c-1.1-1.3-2.6-1.9-4.5-1.9c-2.7,0-5.5,1.5-5.5,4.8c0,2.8,1.9,3.9,4,4.6l0.4,0.1c2.5,0.8,3.1,1.1,3.1,2.4c0,1.3-1.4,2.1-2.7,2.1
				c-1.2,0-2.2-0.5-2.7-1.4l-0.3-0.5l-2.3,1.9l0.3,0.4c1,1.4,2.8,2.3,5,2.3c2.8,0,5.7-1.5,5.7-4.8
				C193.2,121.8,190.6,121,188.4,120.3z"/>
			<polygon class="st0" points="164.5,122.7 158.3,129.6 161.1,129.6 165.8,124.3 170.3,129.6 173.1,129.6 150.7,106.4 			"/>
			<polygon class="st0" points="175.1,113.8 172.3,113.8 166.7,120.2 167.7,121.2 151.7,106.4 174.1,129.6 176.8,129.6 168.2,121.6 
							"/>
		</g>
		<rect x="118.7" y="103.6" class="st2" width="88.3" height="40.4"/>
	</g>
</g>
</svg>
