<?xml version="1.0" encoding="utf-8"?>
<!-- Generator: Adobe Illustrator 27.2.0, SVG Export Plug-In . SVG Version: 6.00 Build 0)  -->
<svg version="1.1" id="Layer_1" xmlns="http://www.w3.org/2000/svg" xmlns:xlink="http://www.w3.org/1999/xlink" x="0px" y="0px"
	 viewBox="0 0 412.1 81.2" style="enable-background:new 0 0 412.1 81.2;" xml:space="preserve">
<style type="text/css">
	.st0{fill:#3E3F3F;}
</style>
<g>
	<g>
		<path class="st0" d="M60.2,32.7c0-0.1,0-0.2,0-0.3c-0.5-1-0.9-2-1.3-3c-0.1-0.2-0.2-0.5-0.3-0.7c-4.1,9.8-8.2,19.6-12.3,29.3
			c1.1,0,2.2,0,3.3,0v-0.1c0.7-1.6,1.4-3.3,2.1-4.9c1.5-3.5,3-7.1,4.5-10.7C57.5,39.1,58.9,35.9,60.2,32.7z"/>
		<path class="st0" d="M59.3,27c2.6,6.4,5.3,12.7,7.9,19.1c1.1,0,2.2,0,3.3,0c-3.2-7.7-6.4-15.3-9.6-23C60.3,24.4,59.8,25.7,59.3,27
			z"/>
		<path class="st0" d="M60.7,34.3c-1.1,2.8-2.3,5.5-3.4,8.3c-0.5,1.1-1,2.2-1.4,3.3c0,0.1-0.1,0.1,0,0.2c1.7,0,3.3,0,5,0
			c0-1.7,0-3.3,0-4.9c0.3,0,0.5,0,0.7-0.1c0.2,0,0.5,0,0.7,0s0.4,0,0.7,0c0.3,0,0.5,0,0.8,0c-1-2.3-2-4.7-3-7.1
			C60.8,34.1,60.7,34.2,60.7,34.3z"/>
		<path class="st0" d="M81.5,41.9c-1,1.2-2.2,1.8-3.8,1.8c-2.8,0-4.9-2.3-4.9-5.4c0-3.1,2.2-5.4,4.9-5.4c1.3,0,2.4,0.6,3.1,1.5
			l0.3,0.4l2.4-1.6l-0.3-0.4c-1.2-1.6-3.1-2.5-5.4-2.5c-2.1,0-4.1,0.8-5.5,2.2c-1.5,1.5-2.3,3.6-2.2,5.9c0,4.5,3.3,7.9,7.7,7.9
			c2.5,0,4.4-0.9,5.7-2.7l0.3-0.4l-2-1.7L81.5,41.9z"/>
		<polygon class="st0" points="84.7,32.9 89.5,32.9 89.5,46.2 92.3,46.2 92.3,32.9 97.2,32.9 97.2,30.2 84.7,30.2 		"/>
		<path class="st0" d="M105.8,30.2c-4.6,0-7.9,3.3-7.9,7.9s3.3,7.9,7.9,7.9s7.9-3.3,7.9-7.9C113.6,33.6,110.3,30.2,105.8,30.2z
			 M105.8,43.6c-2.9,0-5.1-2.3-5.1-5.4c0-3.2,2.1-5.4,5.1-5.4c2.9,0,5.1,2.3,5.1,5.4C110.8,41.3,108.7,43.6,105.8,43.6z"/>
		<polygon class="st0" points="125.9,30.2 125.9,41.7 117.9,30.2 114.9,30.2 114.9,46.2 117.7,46.2 117.7,34.8 125.7,46.1 
			128.7,46.1 128.7,30.2 		"/>
	</g>
	<g>
		<path class="st0" d="M180,32.8c0-0.1,0-0.2,0-0.3c-0.5-1-0.9-2-1.3-3c-0.1-0.2-0.2-0.5-0.3-0.7c-4.1,9.8-8.2,19.6-12.3,29.3
			c1.1,0,2.2,0,3.3,0V58c0.7-1.6,1.4-3.3,2.1-4.9c1.5-3.5,3-7.1,4.5-10.7C177.3,39.2,178.7,36,180,32.8z"/>
		<path class="st0" d="M179.1,27.1c2.6,6.4,5.3,12.7,7.9,19.1c1.1,0,2.2,0,3.3,0c-3.2-7.7-6.4-15.3-9.6-23
			C180.1,24.5,179.6,25.8,179.1,27.1z"/>
		<path class="st0" d="M180.5,34.4c-1.1,2.8-2.3,5.5-3.4,8.3c-0.5,1.1-1,2.2-1.4,3.3c0,0.1-0.1,0.1,0,0.2c1.7,0,3.3,0,5,0
			c0-1.7,0-3.3,0-4.9c0.3,0,0.5,0,0.7-0.1c0.2,0,0.5,0,0.7,0s0.4,0,0.7,0s0.5,0,0.8,0c-1-2.3-2-4.7-3-7.1
			C180.6,34.2,180.5,34.3,180.5,34.4z"/>
		<rect x="211.7" y="30.6" class="st0" width="2.8" height="15.8"/>
		<path class="st0" d="M222,37.1c-2.4-0.8-2.8-1.3-2.8-2.2c0-1.5,1.4-2,2.7-2c1,0,1.8,0.4,2.3,1.1l0.3,0.5l2.3-2l-0.3-0.4
			c-1.1-1.3-2.6-1.9-4.5-1.9c-2.7,0-5.5,1.5-5.5,4.8c0,2.8,1.9,3.9,4,4.6l0.4,0.1c2.5,0.8,3.1,1.1,3.1,2.4c0,1.3-1.4,2.1-2.7,2.1
			c-1.2,0-2.2-0.5-2.7-1.4l-0.3-0.5l-2.3,1.9l0.3,0.4c1,1.4,2.8,2.3,5,2.3c2.8,0,5.7-1.5,5.7-4.8C226.8,38.6,224.2,37.8,222,37.1z"
			/>
		<polygon class="st0" points="198.1,39.5 191.9,46.4 194.7,46.4 199.4,41.1 203.9,46.4 206.7,46.4 184.3,23.1 		"/>
		<polygon class="st0" points="208.7,30.6 205.9,30.6 200.3,37 201.3,38 185.3,23.1 207.7,46.4 210.4,46.4 201.8,38.4 		"/>
	</g>
	<g>
		<path class="st0" d="M277,32.7c0-0.1,0-0.2,0-0.3c-0.5-1-0.9-2-1.3-3c-0.1-0.2-0.2-0.5-0.3-0.7c-4.1,9.8-8.2,19.6-12.3,29.3
			c1.1,0,2.2,0,3.3,0V58c0.7-1.6,1.4-3.3,2.1-4.9c1.5-3.5,3-7.1,4.5-10.7C274.3,39.2,275.7,36,277,32.7z"/>
		<path class="st0" d="M276.1,27c2.6,6.4,5.3,12.7,7.9,19.1c1.1,0,2.2,0,3.3,0c-3.2-7.7-6.4-15.3-9.6-23
			C277.1,24.5,276.6,25.7,276.1,27z"/>
		<path class="st0" d="M277.5,34.3c-1.1,2.8-2.3,5.5-3.4,8.3c-0.5,1.1-1,2.2-1.4,3.3c0,0.1-0.1,0.1,0,0.2c1.7,0,3.3,0,5,0
			c0-1.7,0-3.3,0-4.9c0.3,0,0.5,0,0.7-0.1c0.2,0,0.5,0,0.7,0s0.4,0,0.7,0s0.5,0,0.8,0c-1-2.3-2-4.7-3-7.1
			C277.6,34.2,277.5,34.2,277.5,34.3z"/>
		<polygon class="st0" points="291.3,30.3 288.5,30.3 288.5,46.1 298,46.1 298,43.5 291.3,43.5 		"/>
		<path class="st0" d="M306.8,30.3l-7,15.8h3.1l1.5-3.6h6.8l1.5,3.6h3.1l-6.7-15.8H306.8z M310.1,39.8h-4.6l2.3-5.5L310.1,39.8z"/>
		<polygon class="st0" points="329.4,41.3 326.2,30.3 323.5,30.3 320.2,41.3 317.1,30.3 314.2,30.3 318.8,46.1 321.5,46.1 
			324.8,34.7 328.1,46.1 330.8,46.1 335.4,30.3 332.5,30.3 		"/>
		<path class="st0" d="M342.1,30.3h-6.2v15.8h6.2c3.1,0,7.8-2.1,7.8-7.9S345.3,30.3,342.1,30.3z M338.7,32.9h2.9
			c2,0,5.5,0.7,5.5,5.3s-3.4,5.3-5.5,5.3h-2.9V32.9z"/>
		<path class="st0" d="M359,30.3h-2.3l-7,15.8h3.1l1.5-3.6h6.8l1.5,3.6h3.1L359,30.3z M360,39.8h-4.6l2.3-5.5L360,39.8z"/>
	</g>
	<g>
		<path class="st0" d="M291.6,24.5c-0.2-0.3-0.5-0.5-0.9-0.5c-0.5,0-1.1,0.2-1.1,0.8c0,0.5,0.3,0.7,1,0.9c0.8,0.2,1.5,0.5,1.5,1.5
			c0,1-0.8,1.4-1.7,1.4c-0.6,0-1.2-0.2-1.5-0.7l0.5-0.4c0.2,0.4,0.6,0.6,1.1,0.6c0.5,0,1.1-0.3,1.1-0.9c0-0.6-0.4-0.7-1.3-1
			c-0.7-0.2-1.2-0.5-1.2-1.4c0-1,0.8-1.4,1.7-1.4c0.6,0,1,0.2,1.4,0.6L291.6,24.5z"/>
		<path class="st0" d="M312.3,23.6h0.6l2.1,5h-0.7l-0.5-1.2h-2.5l-0.5,1.2h-0.7L312.3,23.6z M312.6,24.4L312.6,24.4l-1,2.4h2
			L312.6,24.4z"/>
		<path class="st0" d="M333,23.6h1.9c1,0,2.4,0.7,2.4,2.5c0,1.8-1.5,2.5-2.4,2.5H333V23.6z M333.6,28.1h1.1c1.1,0,2-0.6,2-1.9
			c0-1.4-0.9-1.9-2-1.9h-1.1V28.1z"/>
		<path class="st0" d="M357.4,23.6h0.6l2.1,5h-0.7l-0.5-1.2h-2.5l-0.5,1.2h-0.7L357.4,23.6z M357.7,24.4L357.7,24.4l-1,2.4h2
			L357.7,24.4z"/>
	</g>
</g>
</svg>
