<?xml version="1.0" encoding="utf-8"?>
<!-- Generator: Adobe Illustrator 27.2.0, SVG Export Plug-In . SVG Version: 6.00 Build 0)  -->
<svg version="1.1" id="Layer_1" xmlns="http://www.w3.org/2000/svg" xmlns:xlink="http://www.w3.org/1999/xlink" x="0px" y="0px"
	 viewBox="0 0 354.7 81.2" style="enable-background:new 0 0 354.7 81.2;" xml:space="preserve">
<style type="text/css">
	.st0{fill:#3E3F3F;}
	.st1{fill:none;stroke:#3E3F3F;stroke-miterlimit:10;}
	.st2{fill:none;stroke:#3EFF52;stroke-miterlimit:10;}
	.st3{fill:#3E3F3F;stroke:#3E3F3F;stroke-miterlimit:10;}
</style>
<g>
	<path class="st0" d="M26.6-32.5c0-0.1,0-0.2,0-0.3c-0.5-1-0.9-2-1.3-3c-0.1-0.2-0.2-0.5-0.3-0.7c-4.1,9.8-8.2,19.6-12.3,29.3
		c1.1,0,2.2,0,3.3,0v-0.1c0.7-1.6,1.4-3.3,2.1-4.9c1.5-3.5,3-7.1,4.5-10.7C23.9-26.1,25.3-29.3,26.6-32.5z"/>
	<path class="st0" d="M25.7-38.2c2.6,6.4,5.3,12.7,7.9,19.1c1.1,0,2.2,0,3.3,0c-3.2-7.7-6.4-15.3-9.6-23
		C26.7-40.8,26.2-39.5,25.7-38.2z"/>
	<path class="st0" d="M27.1-30.9c-1.1,2.8-2.3,5.5-3.4,8.3c-0.5,1.1-1,2.2-1.4,3.3c0,0.1-0.1,0.1,0,0.2c1.7,0,3.3,0,5,0
		c0-1.7,0-3.3,0-4.9c0.3,0,0.5,0,0.7-0.1c0.2,0,0.5,0,0.7,0s0.4,0,0.7,0s0.5,0,0.8,0c-1-2.3-2-4.7-3-7.1
		C27.2-31.1,27.1-31,27.1-30.9z"/>
	<path class="st0" d="M47.9-23.3c-1,1.2-2.2,1.8-3.8,1.8c-2.8,0-4.9-2.3-4.9-5.4s2.2-5.4,4.9-5.4c1.3,0,2.4,0.6,3.1,1.5l0.3,0.4
		l2.4-1.6l-0.3-0.4c-1.2-1.6-3.1-2.5-5.4-2.5c-2.1,0-4.1,0.8-5.5,2.2c-1.5,1.5-2.3,3.6-2.2,5.9c0,4.5,3.3,7.9,7.7,7.9
		c2.5,0,4.4-0.9,5.7-2.7l0.3-0.4l-2-1.7L47.9-23.3z"/>
	<polygon class="st0" points="51.1,-32.3 55.9,-32.3 55.9,-19 58.7,-19 58.7,-32.3 63.6,-32.3 63.6,-35 51.1,-35 	"/>
	<path class="st0" d="M72.2-35c-4.6,0-7.9,3.3-7.9,7.9s3.3,7.9,7.9,7.9s7.9-3.3,7.9-7.9C80-31.6,76.7-35,72.2-35z M72.2-21.6
		c-2.9,0-5.1-2.3-5.1-5.4c0-3.2,2.1-5.4,5.1-5.4c2.9,0,5.1,2.3,5.1,5.4C77.2-23.9,75.1-21.6,72.2-21.6z"/>
	<polygon class="st0" points="92.3,-35 92.3,-23.5 84.3,-35 81.3,-35 81.3,-19 84.1,-19 84.1,-30.4 92.1,-19.1 95.1,-19.1 95.1,-35 
			"/>
</g>
<g>
	<path class="st0" d="M146.4-32.5c0-0.1,0-0.2,0-0.3c-0.5-1-0.9-2-1.3-3c-0.1-0.2-0.2-0.5-0.3-0.7c-4.1,9.8-8.2,19.6-12.3,29.3
		c1.1,0,2.2,0,3.3,0v-0.1c0.7-1.6,1.4-3.3,2.1-4.9c1.5-3.5,3-7.1,4.5-10.7C143.7-26.1,145.1-29.3,146.4-32.5z"/>
	<path class="st0" d="M145.5-38.2c2.6,6.4,5.3,12.7,7.9,19.1c1.1,0,2.2,0,3.3,0c-3.2-7.7-6.4-15.3-9.6-23
		C146.5-40.8,146-39.5,145.5-38.2z"/>
	<path class="st0" d="M146.9-30.9c-1.1,2.8-2.3,5.5-3.4,8.3c-0.5,1.1-1,2.2-1.4,3.3c0,0.1-0.1,0.1,0,0.2c1.7,0,3.3,0,5,0
		c0-1.7,0-3.3,0-4.9c0.3,0,0.5,0,0.7-0.1c0.2,0,0.5,0,0.7,0s0.4,0,0.7,0s0.5,0,0.8,0c-1-2.3-2-4.7-3-7.1
		C147-31.1,146.9-31,146.9-30.9z"/>
	<rect x="178.1" y="-34.6" class="st0" width="2.8" height="15.8"/>
	<path class="st0" d="M188.4-28.1c-2.4-0.8-2.8-1.3-2.8-2.2c0-1.5,1.4-2,2.7-2c1,0,1.8,0.4,2.3,1.1l0.3,0.5l2.3-2l-0.3-0.4
		c-1.1-1.3-2.6-1.9-4.5-1.9c-2.7,0-5.5,1.5-5.5,4.8c0,2.8,1.9,3.9,4,4.6l0.4,0.1c2.5,0.8,3.1,1.1,3.1,2.4S189-21,187.7-21
		c-1.2,0-2.2-0.5-2.7-1.4l-0.3-0.5l-2.3,1.9l0.3,0.4c1,1.4,2.8,2.3,5,2.3c2.8,0,5.7-1.5,5.7-4.8C193.2-26.6,190.6-27.4,188.4-28.1z"
		/>
	<polygon class="st0" points="164.5,-25.7 158.3,-18.8 161.1,-18.8 165.8,-24.1 170.3,-18.8 173.1,-18.8 150.7,-42.1 	"/>
	<polygon class="st0" points="175.1,-34.6 172.3,-34.6 166.7,-28.2 167.7,-27.2 151.7,-42.1 174.1,-18.8 176.8,-18.8 168.2,-26.8 	
		"/>
</g>
<g>
	<line class="st1" x1="108.4" y1="103.6" x2="108.4" y2="144"/>
	<g>
		<g>
			<path class="st0" d="M26.6,116c0-0.1,0-0.2,0-0.3c-0.5-1-0.9-2-1.3-3c-0.1-0.2-0.2-0.5-0.3-0.7c-4.1,9.8-8.2,19.6-12.3,29.3
				c1.1,0,2.2,0,3.3,0v-0.1c0.7-1.6,1.4-3.3,2.1-4.9c1.5-3.5,3-7.1,4.5-10.7C23.9,122.4,25.3,119.2,26.6,116z"/>
			<path class="st0" d="M25.7,110.3c2.6,6.4,5.3,12.7,7.9,19.1c1.1,0,2.2,0,3.3,0c-3.2-7.7-6.4-15.3-9.6-23
				C26.7,107.7,26.2,109,25.7,110.3z"/>
			<path class="st0" d="M27.1,117.6c-1.1,2.8-2.3,5.5-3.4,8.3c-0.5,1.1-1,2.2-1.4,3.3c0,0.1-0.1,0.1,0,0.2c1.7,0,3.3,0,5,0
				c0-1.7,0-3.3,0-4.9c0.3,0,0.5,0,0.7-0.1c0.2,0,0.5,0,0.7,0s0.4,0,0.7,0s0.5,0,0.8,0c-1-2.3-2-4.7-3-7.1
				C27.2,117.4,27.1,117.5,27.1,117.6z"/>
			<path class="st0" d="M47.9,125.2c-1,1.2-2.2,1.8-3.8,1.8c-2.8,0-4.9-2.3-4.9-5.4s2.2-5.4,4.9-5.4c1.3,0,2.4,0.6,3.1,1.5l0.3,0.4
				l2.4-1.6l-0.3-0.4c-1.2-1.6-3.1-2.5-5.4-2.5c-2.1,0-4.1,0.8-5.5,2.2c-1.5,1.5-2.3,3.6-2.2,5.9c0,4.5,3.3,7.9,7.7,7.9
				c2.5,0,4.4-0.9,5.7-2.7l0.3-0.4l-2-1.7L47.9,125.2z"/>
			<polygon class="st0" points="51.1,116.1 55.9,116.1 55.9,129.4 58.7,129.4 58.7,116.1 63.6,116.1 63.6,113.5 51.1,113.5 			"/>
			<path class="st0" d="M72.2,113.5c-4.6,0-7.9,3.3-7.9,7.9s3.3,7.9,7.9,7.9s7.9-3.3,7.9-7.9C80,116.8,76.7,113.5,72.2,113.5z
				 M72.2,126.9c-2.9,0-5.1-2.3-5.1-5.4c0-3.2,2.1-5.4,5.1-5.4c2.9,0,5.1,2.3,5.1,5.4C77.2,124.6,75.1,126.9,72.2,126.9z"/>
			<polygon class="st0" points="92.3,113.5 92.3,124.9 84.3,113.5 81.3,113.5 81.3,129.4 84.1,129.4 84.1,118 92.1,129.4 
				95.1,129.4 95.1,113.5 			"/>
		</g>
		<rect x="9.7" y="103.6" class="st2" width="88.3" height="40.4"/>
	</g>
	<g>
		<g>
			<path class="st0" d="M146.4,116c0-0.1,0-0.2,0-0.3c-0.5-1-0.9-2-1.3-3c-0.1-0.2-0.2-0.5-0.3-0.7c-4.1,9.8-8.2,19.6-12.3,29.3
				c1.1,0,2.2,0,3.3,0v-0.1c0.7-1.6,1.4-3.3,2.1-4.9c1.5-3.5,3-7.1,4.5-10.7C143.7,122.4,145.1,119.2,146.4,116z"/>
			<path class="st0" d="M145.5,110.3c2.6,6.4,5.3,12.7,7.9,19.1c1.1,0,2.2,0,3.3,0c-3.2-7.7-6.4-15.3-9.6-23
				C146.5,107.7,146,109,145.5,110.3z"/>
			<path class="st0" d="M146.9,117.6c-1.1,2.8-2.3,5.5-3.4,8.3c-0.5,1.1-1,2.2-1.4,3.3c0,0.1-0.1,0.1,0,0.2c1.7,0,3.3,0,5,0
				c0-1.7,0-3.3,0-4.9c0.3,0,0.5,0,0.7-0.1c0.2,0,0.5,0,0.7,0s0.4,0,0.7,0s0.5,0,0.8,0c-1-2.3-2-4.7-3-7.1
				C147,117.4,146.9,117.5,146.9,117.6z"/>
			<rect x="178.1" y="113.8" class="st0" width="2.8" height="15.8"/>
			<path class="st0" d="M188.4,120.3c-2.4-0.8-2.8-1.3-2.8-2.2c0-1.5,1.4-2,2.7-2c1,0,1.8,0.4,2.3,1.1l0.3,0.5l2.3-2l-0.3-0.4
				c-1.1-1.3-2.6-1.9-4.5-1.9c-2.7,0-5.5,1.5-5.5,4.8c0,2.8,1.9,3.9,4,4.6l0.4,0.1c2.5,0.8,3.1,1.1,3.1,2.4s-1.4,2.1-2.7,2.1
				c-1.2,0-2.2-0.5-2.7-1.4l-0.3-0.5l-2.3,1.9l0.3,0.4c1,1.4,2.8,2.3,5,2.3c2.8,0,5.7-1.5,5.7-4.8
				C193.2,121.8,190.6,121,188.4,120.3z"/>
			<polygon class="st0" points="164.5,122.7 158.3,129.6 161.1,129.6 165.8,124.3 170.3,129.6 173.1,129.6 150.7,106.4 			"/>
			<polygon class="st0" points="175.1,113.8 172.3,113.8 166.7,120.2 167.7,121.2 151.7,106.4 174.1,129.6 176.8,129.6 168.2,121.6 
							"/>
		</g>
		<rect x="118.7" y="103.6" class="st2" width="88.3" height="40.4"/>
	</g>
</g>
<g>
	<path class="st3" d="M282.6,90.7h1.8v13.2h6.8v1.6h-8.5V90.7z"/>
	<path class="st3" d="M303.7,90.7h1.7l6.3,14.8h-2.1l-1.5-3.6h-7.4l-1.5,3.6h-2L303.7,90.7z M304.5,93L304.5,93l-3.1,7.3h6.1
		L304.5,93z"/>
	<path class="st3" d="M311.4,90.7h1.9l3.4,12.3h0l3.6-12.3h2L326,103h0l3.4-12.3h1.8l-4.4,14.8h-1.9L321.4,93h0l-3.7,12.6h-1.9
		L311.4,90.7z"/>
	<path class="st3" d="M333.1,90.7h5.7c2.9,0,7.3,1.9,7.3,7.4c0,5.5-4.4,7.4-7.3,7.4h-5.7V90.7z M334.8,103.9h3.4c3.4,0,6-1.7,6-5.8
		s-2.6-5.8-6-5.8h-3.4V103.9z"/>
	<path class="st3" d="M353.7,90.7h1.7l6.3,14.8h-2.1l-1.5-3.6h-7.4l-1.5,3.6h-2L353.7,90.7z M354.5,93L354.5,93l-3.1,7.3h6.1
		L354.5,93z"/>
</g>
<line class="st1" x1="118.4" y1="20.4" x2="118.4" y2="60.8"/>
<line class="st1" x1="215.9" y1="20.6" x2="215.9" y2="61"/>
<g>
	<path class="st0" d="M31.6,32.7c0-0.1,0-0.2,0-0.3c-0.5-1-0.9-2-1.3-3c-0.1-0.2-0.2-0.5-0.3-0.7c-4.1,9.8-8.2,19.6-12.3,29.3
		c1.1,0,2.2,0,3.3,0v-0.1c0.7-1.6,1.4-3.3,2.1-4.9c1.5-3.5,3-7.1,4.5-10.7C28.9,39.1,30.3,35.9,31.6,32.7z"/>
	<path class="st0" d="M30.7,27c2.6,6.4,5.3,12.7,7.9,19.1c1.1,0,2.2,0,3.3,0c-3.2-7.7-6.4-15.3-9.6-23C31.7,24.4,31.2,25.7,30.7,27z
		"/>
	<path class="st0" d="M32.1,34.3c-1.1,2.8-2.3,5.5-3.4,8.3c-0.5,1.1-1,2.2-1.4,3.3c0,0.1-0.1,0.1,0,0.2c1.7,0,3.3,0,5,0
		c0-1.7,0-3.3,0-4.9c0.3,0,0.5,0,0.7-0.1c0.2,0,0.5,0,0.7,0c0.2,0,0.4,0,0.7,0c0.3,0,0.5,0,0.8,0c-1-2.3-2-4.7-3-7.1
		C32.2,34.1,32.1,34.2,32.1,34.3z"/>
	<path class="st0" d="M52.9,41.9c-1,1.2-2.2,1.8-3.8,1.8c-2.8,0-4.9-2.3-4.9-5.4c0-3.1,2.2-5.4,4.9-5.4c1.3,0,2.4,0.6,3.1,1.5
		l0.3,0.4l2.4-1.6l-0.3-0.4c-1.2-1.6-3.1-2.5-5.4-2.5c-2.1,0-4.1,0.8-5.5,2.2c-1.5,1.5-2.3,3.6-2.2,5.9c0,4.5,3.3,7.9,7.7,7.9
		c2.5,0,4.4-0.9,5.7-2.7l0.3-0.4l-2-1.7L52.9,41.9z"/>
	<polygon class="st0" points="56.1,32.9 60.9,32.9 60.9,46.2 63.7,46.2 63.7,32.9 68.6,32.9 68.6,30.2 56.1,30.2 	"/>
	<path class="st0" d="M77.2,30.2c-4.6,0-7.9,3.3-7.9,7.9s3.3,7.9,7.9,7.9s7.9-3.3,7.9-7.9C85,33.6,81.7,30.2,77.2,30.2z M77.2,43.6
		c-2.9,0-5.1-2.3-5.1-5.4c0-3.2,2.1-5.4,5.1-5.4c2.9,0,5.1,2.3,5.1,5.4C82.2,41.3,80.1,43.6,77.2,43.6z"/>
	<polygon class="st0" points="97.3,30.2 97.3,41.7 89.3,30.2 86.3,30.2 86.3,46.2 89.1,46.2 89.1,34.8 97.1,46.1 100.1,46.1 
		100.1,30.2 	"/>
</g>
<g>
	<path class="st0" d="M151.4,32.8c0-0.1,0-0.2,0-0.3c-0.5-1-0.9-2-1.3-3c-0.1-0.2-0.2-0.5-0.3-0.7c-4.1,9.8-8.2,19.6-12.3,29.3
		c1.1,0,2.2,0,3.3,0V58c0.7-1.6,1.4-3.3,2.1-4.9c1.5-3.5,3-7.1,4.5-10.7C148.7,39.2,150.1,36,151.4,32.8z"/>
	<path class="st0" d="M150.5,27.1c2.6,6.4,5.3,12.7,7.9,19.1c1.1,0,2.2,0,3.3,0c-3.2-7.7-6.4-15.3-9.6-23
		C151.5,24.5,151,25.8,150.5,27.1z"/>
	<path class="st0" d="M151.9,34.4c-1.1,2.8-2.3,5.5-3.4,8.3c-0.5,1.1-1,2.2-1.4,3.3c0,0.1-0.1,0.1,0,0.2c1.7,0,3.3,0,5,0
		c0-1.7,0-3.3,0-4.9c0.3,0,0.5,0,0.7-0.1c0.2,0,0.5,0,0.7,0s0.4,0,0.7,0s0.5,0,0.8,0c-1-2.3-2-4.7-3-7.1
		C152,34.2,151.9,34.3,151.9,34.4z"/>
	<rect x="183.1" y="30.6" class="st0" width="2.8" height="15.8"/>
	<path class="st0" d="M193.4,37.1c-2.4-0.8-2.8-1.3-2.8-2.2c0-1.5,1.4-2,2.7-2c1,0,1.8,0.4,2.3,1.1l0.3,0.5l2.3-2l-0.3-0.4
		c-1.1-1.3-2.6-1.9-4.5-1.9c-2.7,0-5.5,1.5-5.5,4.8c0,2.8,1.9,3.9,4,4.6l0.4,0.1c2.5,0.8,3.1,1.1,3.1,2.4c0,1.3-1.4,2.1-2.7,2.1
		c-1.2,0-2.2-0.5-2.7-1.4l-0.3-0.5l-2.3,1.9l0.3,0.4c1,1.4,2.8,2.3,5,2.3c2.8,0,5.7-1.5,5.7-4.8C198.2,38.6,195.6,37.8,193.4,37.1z"
		/>
	<polygon class="st0" points="169.5,39.5 163.3,46.4 166.1,46.4 170.8,41.1 175.3,46.4 178.1,46.4 155.7,23.1 	"/>
	<polygon class="st0" points="180.1,30.6 177.3,30.6 171.7,37 172.7,38 156.7,23.1 179.1,46.4 181.8,46.4 173.2,38.4 	"/>
</g>
<g>
	<g>
		<path class="st0" d="M248.4,32.7c0-0.1,0-0.2,0-0.3c-0.5-1-0.9-2-1.3-3c-0.1-0.2-0.2-0.5-0.3-0.7c-4.1,9.8-8.2,19.6-12.3,29.3
			c1.1,0,2.2,0,3.3,0V58c0.7-1.6,1.4-3.3,2.1-4.9c1.5-3.5,3-7.1,4.5-10.7C245.7,39.2,247.1,36,248.4,32.7z"/>
		<path class="st0" d="M247.5,27c2.6,6.4,5.3,12.7,7.9,19.1c1.1,0,2.2,0,3.3,0c-3.2-7.7-6.4-15.3-9.6-23
			C248.5,24.5,248,25.7,247.5,27z"/>
		<path class="st0" d="M248.9,34.3c-1.1,2.8-2.3,5.5-3.4,8.3c-0.5,1.1-1,2.2-1.4,3.3c0,0.1-0.1,0.1,0,0.2c1.7,0,3.3,0,5,0
			c0-1.7,0-3.3,0-4.9c0.3,0,0.5,0,0.7-0.1c0.2,0,0.5,0,0.7,0s0.4,0,0.7,0s0.5,0,0.8,0c-1-2.3-2-4.7-3-7.1
			C249,34.2,248.9,34.2,248.9,34.3z"/>
		<polygon class="st0" points="262.7,30.3 259.9,30.3 259.9,46.1 269.5,46.1 269.5,43.5 262.7,43.5 		"/>
		<path class="st0" d="M278.2,30.3l-7,15.8h3.1l1.5-3.6h6.8l1.5,3.6h3.1l-6.7-15.8H278.2z M281.5,39.8h-4.6l2.3-5.5L281.5,39.8z"/>
		<polygon class="st0" points="300.8,41.3 297.6,30.3 294.9,30.3 291.6,41.3 288.6,30.3 285.6,30.3 290.2,46.1 292.9,46.1 
			296.2,34.7 299.5,46.1 302.2,46.1 306.8,30.3 303.9,30.3 		"/>
		<path class="st0" d="M313.5,30.3h-6.2v15.8h6.2c3.1,0,7.8-2.1,7.8-7.9S316.7,30.3,313.5,30.3z M310.1,32.9h2.9
			c2,0,5.5,0.7,5.5,5.3s-3.4,5.3-5.5,5.3h-2.9V32.9z"/>
		<path class="st0" d="M330.4,30.3h-2.3l-7,15.8h3.1l1.5-3.6h6.8l1.5,3.6h3.1L330.4,30.3z M331.4,39.8h-4.6l2.3-5.5L331.4,39.8z"/>
	</g>
	<g>
		<path class="st0" d="M263,24.5c-0.2-0.3-0.5-0.5-0.9-0.5c-0.5,0-1.1,0.2-1.1,0.8c0,0.5,0.3,0.7,1,0.9c0.8,0.2,1.5,0.5,1.5,1.5
			c0,1-0.8,1.4-1.7,1.4c-0.6,0-1.2-0.2-1.5-0.7l0.5-0.4c0.2,0.4,0.6,0.6,1.1,0.6c0.5,0,1.1-0.3,1.1-0.9c0-0.6-0.4-0.7-1.3-1
			c-0.7-0.2-1.2-0.5-1.2-1.4c0-1,0.8-1.4,1.7-1.4c0.6,0,1,0.2,1.4,0.6L263,24.5z"/>
		<path class="st0" d="M283.7,23.6h0.6l2.1,5h-0.7l-0.5-1.2h-2.5l-0.5,1.2h-0.7L283.7,23.6z M284,24.4L284,24.4l-1,2.4h2L284,24.4z"
			/>
		<path class="st0" d="M304.4,23.6h1.9c1,0,2.4,0.7,2.4,2.5c0,1.8-1.5,2.5-2.4,2.5h-1.9V23.6z M305,28.1h1.1c1.1,0,2-0.6,2-1.9
			c0-1.4-0.9-1.9-2-1.9H305V28.1z"/>
		<path class="st0" d="M328.8,23.6h0.6l2.1,5h-0.7l-0.5-1.2h-2.5l-0.5,1.2h-0.7L328.8,23.6z M329.1,24.4L329.1,24.4l-1,2.4h2
			L329.1,24.4z"/>
	</g>
	<g>
		<path class="st0" d="M268.3,50.5h-0.9V53H267v-2.5h-0.9v-0.3h2.2V50.5z"/>
		<path class="st0" d="M268.3,51.6c0-0.2,0-0.3,0-0.4h0.3c0,0.1,0,0.2,0,0.3h0c0.1-0.2,0.3-0.4,0.6-0.4c0,0,0.1,0,0.1,0l0,0.3
			c-0.1,0-0.1,0-0.2,0c-0.4,0-0.5,0.3-0.5,0.7V53h-0.3V51.6z"/>
		<path class="st0" d="M269.7,51.4c0.2-0.2,0.5-0.3,0.7-0.3c0.6,0,0.8,0.3,0.8,0.8v0.8c0,0.1,0,0.2,0,0.3h-0.3c0-0.1,0-0.2,0-0.3h0
			c-0.1,0.2-0.3,0.3-0.6,0.3c-0.4,0-0.7-0.2-0.7-0.6c0-0.6,0.7-0.7,1.2-0.7h0.1v-0.1c0-0.3-0.2-0.4-0.5-0.4c-0.2,0-0.4,0.1-0.6,0.2
			L269.7,51.4z M270.6,52.1c-0.4,0-0.7,0.1-0.7,0.4c0,0.2,0.2,0.3,0.4,0.3c0.4,0,0.5-0.3,0.6-0.6v-0.1H270.6z"/>
		<path class="st0" d="M273.3,52.7L273.3,52.7c-0.1,0.2-0.4,0.4-0.7,0.4c-0.5,0-0.9-0.4-0.9-1c0-0.6,0.4-1,1-1
			c0.3,0,0.5,0.1,0.7,0.3h0V50h0.3v3h-0.3V52.7z M272.7,51.4c-0.4,0-0.7,0.3-0.7,0.7s0.3,0.7,0.7,0.7c0.4,0,0.7-0.3,0.7-0.7
			S273.1,51.4,272.7,51.4z"/>
		<path class="st0" d="M274.4,50.2c0.1,0,0.2,0.1,0.2,0.2c0,0.1-0.1,0.2-0.2,0.2s-0.2-0.1-0.2-0.2C274.2,50.3,274.3,50.2,274.4,50.2
			z M274.2,51.2h0.3V53h-0.3V51.2z"/>
		<path class="st0" d="M275.2,51.6c0-0.2,0-0.3,0-0.4h0.3c0,0.1,0,0.2,0,0.3h0c0.1-0.2,0.3-0.4,0.6-0.4c0.5,0,0.7,0.3,0.7,0.8V53
			h-0.3v-1.1c0-0.3-0.1-0.5-0.4-0.5c-0.4,0-0.6,0.3-0.6,0.7V53h-0.3V51.6z"/>
		<path class="st0" d="M279.3,53c0,0.7-0.4,1-1,1c-0.4,0-0.7-0.1-0.9-0.4l0.2-0.3c0.2,0.2,0.4,0.3,0.7,0.3c0.6,0,0.7-0.4,0.7-0.8
			v-0.2h0c-0.1,0.2-0.4,0.3-0.7,0.3c-0.6,0-1-0.4-1-1c0-0.6,0.4-1,1-1c0.3,0,0.5,0.1,0.7,0.4h0v-0.3h0.3V53z M278.3,52.8
			c0.4,0,0.7-0.3,0.7-0.7c0-0.4-0.3-0.7-0.7-0.7c-0.4,0-0.7,0.3-0.7,0.7C277.6,52.5,277.9,52.8,278.3,52.8z"/>
		<path class="st0" d="M280.8,51.9h1v0.3h-1V51.9z"/>
		<path class="st0" d="M283.5,50.2h0.9c0.5,0,0.9,0.2,0.9,0.7c0,0.3-0.2,0.5-0.5,0.6v0c0.4,0,0.6,0.3,0.6,0.7c0,0.6-0.6,0.8-1.1,0.8
			h-0.8V50.2z M283.8,51.4h0.5c0.3,0,0.6-0.1,0.6-0.5c0-0.3-0.3-0.4-0.6-0.4h-0.5V51.4z M283.8,52.7h0.6c0.3,0,0.7-0.1,0.7-0.5
			c0-0.4-0.3-0.5-0.7-0.5h-0.6V52.7z"/>
		<path class="st0" d="M287.6,52.6c0,0.2,0,0.3,0,0.4h-0.3c0-0.1,0-0.2,0-0.3h0c-0.1,0.2-0.3,0.4-0.6,0.4c-0.5,0-0.7-0.3-0.7-0.8
			v-1.2h0.3v1.1c0,0.3,0.1,0.5,0.4,0.5c0.4,0,0.6-0.3,0.6-0.7v-0.9h0.3V52.6z"/>
		<path class="st0" d="M288.3,50.2c0.1,0,0.2,0.1,0.2,0.2c0,0.1-0.1,0.2-0.2,0.2s-0.2-0.1-0.2-0.2C288.1,50.3,288.2,50.2,288.3,50.2
			z M288.2,51.2h0.3V53h-0.3V51.2z"/>
		<path class="st0" d="M289.1,50h0.3v3h-0.3V50z"/>
		<path class="st0" d="M291.6,52.7L291.6,52.7c-0.1,0.2-0.4,0.4-0.7,0.4c-0.5,0-0.9-0.4-0.9-1c0-0.6,0.4-1,1-1
			c0.3,0,0.5,0.1,0.7,0.3h0V50h0.3v3h-0.3V52.7z M291,51.4c-0.4,0-0.7,0.3-0.7,0.7s0.3,0.7,0.7,0.7c0.4,0,0.7-0.3,0.7-0.7
			S291.4,51.4,291,51.4z"/>
		<path class="st0" d="M292.7,50.2c0.1,0,0.2,0.1,0.2,0.2c0,0.1-0.1,0.2-0.2,0.2s-0.2-0.1-0.2-0.2C292.5,50.3,292.6,50.2,292.7,50.2
			z M292.5,51.2h0.3V53h-0.3V51.2z"/>
		<path class="st0" d="M293.5,51.6c0-0.2,0-0.3,0-0.4h0.3c0,0.1,0,0.2,0,0.3h0c0.1-0.2,0.3-0.4,0.6-0.4c0.5,0,0.7,0.3,0.7,0.8V53
			h-0.3v-1.1c0-0.3-0.1-0.5-0.4-0.5c-0.4,0-0.6,0.3-0.6,0.7V53h-0.3V51.6z"/>
		<path class="st0" d="M297.6,53c0,0.7-0.4,1-1,1c-0.4,0-0.7-0.1-0.9-0.4l0.2-0.3c0.2,0.2,0.4,0.3,0.7,0.3c0.6,0,0.7-0.4,0.7-0.8
			v-0.2h0c-0.1,0.2-0.4,0.3-0.7,0.3c-0.6,0-1-0.4-1-1c0-0.6,0.4-1,1-1c0.3,0,0.5,0.1,0.7,0.4h0v-0.3h0.3V53z M296.6,52.8
			c0.4,0,0.7-0.3,0.7-0.7c0-0.4-0.3-0.7-0.7-0.7c-0.4,0-0.7,0.3-0.7,0.7C295.9,52.5,296.2,52.8,296.6,52.8z"/>
		<path class="st0" d="M300.7,50.7c-0.1-0.2-0.3-0.3-0.5-0.3c-0.3,0-0.6,0.1-0.6,0.5c0,0.3,0.1,0.4,0.6,0.5c0.4,0.1,0.8,0.3,0.8,0.8
			c0,0.6-0.5,0.8-1,0.8c-0.3,0-0.7-0.1-0.9-0.4l0.3-0.2c0.1,0.2,0.4,0.3,0.6,0.3c0.3,0,0.6-0.2,0.6-0.5c0-0.3-0.2-0.4-0.7-0.6
			c-0.4-0.1-0.7-0.3-0.7-0.8c0-0.5,0.5-0.8,1-0.8c0.3,0,0.6,0.1,0.8,0.3L300.7,50.7z"/>
		<path class="st0" d="M303.1,52.6c0,0.2,0,0.3,0,0.4h-0.3c0-0.1,0-0.2,0-0.3h0c-0.1,0.2-0.3,0.4-0.6,0.4c-0.5,0-0.7-0.3-0.7-0.8
			v-1.2h0.3v1.1c0,0.3,0.1,0.5,0.4,0.5c0.4,0,0.6-0.3,0.6-0.7v-0.9h0.3V52.6z"/>
		<path class="st0" d="M303.7,51.2h0.3v0.3h0c0.2-0.2,0.4-0.3,0.7-0.3c0.6,0,1,0.4,1,1c0,0.6-0.4,1-0.9,1c-0.3,0-0.6-0.2-0.7-0.4h0
			V54h-0.3V51.2z M304.7,52.8c0.4,0,0.7-0.3,0.7-0.7s-0.3-0.7-0.7-0.7c-0.4,0-0.7,0.3-0.7,0.7S304.3,52.8,304.7,52.8z"/>
		<path class="st0" d="M306.1,51.2h0.3v0.3h0c0.2-0.2,0.4-0.3,0.7-0.3c0.6,0,1,0.4,1,1c0,0.6-0.4,1-0.9,1c-0.3,0-0.6-0.2-0.7-0.4h0
			V54h-0.3V51.2z M307.1,52.8c0.4,0,0.7-0.3,0.7-0.7s-0.3-0.7-0.7-0.7c-0.4,0-0.7,0.3-0.7,0.7S306.7,52.8,307.1,52.8z"/>
		<path class="st0" d="M308.6,50h0.3v3h-0.3V50z"/>
		<path class="st0" d="M309.7,50.2c0.1,0,0.2,0.1,0.2,0.2c0,0.1-0.1,0.2-0.2,0.2s-0.2-0.1-0.2-0.2C309.5,50.3,309.6,50.2,309.7,50.2
			z M309.6,51.2h0.3V53h-0.3V51.2z"/>
		<path class="st0" d="M312.2,52.7c-0.2,0.3-0.5,0.4-0.8,0.4c-0.6,0-0.9-0.4-0.9-1c0-0.6,0.4-1,1-1c0.5,0,0.9,0.4,0.9,1v0.1h-1.5
			c0,0.3,0.3,0.6,0.6,0.6c0.3,0,0.4-0.1,0.6-0.3L312.2,52.7z M311.9,51.9c0-0.3-0.2-0.5-0.6-0.5s-0.6,0.2-0.6,0.5H311.9z"/>
		<path class="st0" d="M312.8,52.5c0.1,0.2,0.3,0.3,0.5,0.3c0.2,0,0.4-0.1,0.4-0.3c0-0.2-0.2-0.3-0.4-0.3c-0.4-0.1-0.7-0.2-0.7-0.5
			c0-0.4,0.4-0.6,0.7-0.6c0.3,0,0.5,0.1,0.6,0.3l-0.3,0.2c-0.1-0.1-0.2-0.2-0.4-0.2c-0.2,0-0.4,0.1-0.4,0.3c0,0.2,0.2,0.2,0.5,0.3
			c0.3,0.1,0.6,0.2,0.6,0.6c0,0.4-0.4,0.6-0.7,0.6c-0.3,0-0.5-0.1-0.7-0.3L312.8,52.5z"/>
		<path class="st0" d="M315.6,50.2h0.3v2.5h1.3V53h-1.6V50.2z"/>
		<path class="st0" d="M318,52.8c0,0.1-0.1,0.2-0.2,0.2s-0.2-0.1-0.2-0.2s0.1-0.2,0.2-0.2S318,52.7,318,52.8z"/>
		<path class="st0" d="M318.7,50.2h0.3v2.5h1.3V53h-1.6V50.2z"/>
		<path class="st0" d="M321.2,52.8c0,0.1-0.1,0.2-0.2,0.2s-0.2-0.1-0.2-0.2s0.1-0.2,0.2-0.2S321.2,52.7,321.2,52.8z"/>
		<path class="st0" d="M323.8,50.8c-0.2-0.2-0.4-0.3-0.7-0.3c-0.6,0-1.1,0.6-1.1,1.2c0,0.7,0.4,1.2,1.1,1.2c0.3,0,0.6-0.1,0.8-0.4
			l0.3,0.2c-0.3,0.3-0.6,0.5-1.1,0.5c-0.8,0-1.4-0.6-1.4-1.5c0-0.8,0.6-1.5,1.4-1.5c0.4,0,0.8,0.1,1,0.4L323.8,50.8z"/>
		<path class="st0" d="M325.1,52.8c0,0.1-0.1,0.2-0.2,0.2s-0.2-0.1-0.2-0.2s0.1-0.2,0.2-0.2S325.1,52.7,325.1,52.8z"/>
	</g>
</g>
<g>
	<path class="st0" d="M149.4,50.2h0.3l1.1,2.8h-0.4l-0.3-0.7h-1.3l-0.3,0.7h-0.3L149.4,50.2z M149.6,50.6L149.6,50.6L149,52h1
		L149.6,50.6z"/>
	<path class="st0" d="M151.1,51.6c0-0.2,0-0.3,0-0.4h0.3c0,0.1,0,0.2,0,0.3h0c0.1-0.2,0.3-0.4,0.6-0.4c0,0,0.1,0,0.1,0l0,0.3
		c0,0-0.1,0-0.2,0c-0.3,0-0.5,0.3-0.5,0.7V53h-0.3V51.6z"/>
	<path class="st0" d="M153.5,51.6c-0.1-0.2-0.3-0.2-0.4-0.2c-0.4,0-0.6,0.3-0.6,0.7s0.2,0.7,0.6,0.7c0.2,0,0.3-0.1,0.4-0.2l0.2,0.2
		c-0.2,0.2-0.4,0.3-0.6,0.3c-0.5,0-0.9-0.4-0.9-1c0-0.6,0.4-1,0.9-1c0.2,0,0.5,0.1,0.6,0.3L153.5,51.6z"/>
	<path class="st0" d="M154,50h0.3v1.4h0c0.1-0.1,0.3-0.3,0.5-0.3c0.4,0,0.6,0.3,0.6,0.8V53h-0.3v-1.1c0-0.3-0.1-0.5-0.4-0.5
		c-0.4,0-0.5,0.3-0.5,0.7V53H154V50z"/>
	<path class="st0" d="M156.2,50.2c0.1,0,0.2,0.1,0.2,0.2c0,0.1-0.1,0.2-0.2,0.2c-0.1,0-0.2-0.1-0.2-0.2
		C156,50.3,156.1,50.2,156.2,50.2z M156,51.1h0.3V53H156V51.1z"/>
	<path class="st0" d="M157.8,51.4h-0.5v0.9c0,0.2,0,0.4,0.3,0.4c0.1,0,0.2,0,0.2-0.1l0,0.3c-0.1,0-0.2,0.1-0.3,0.1
		c-0.4,0-0.5-0.2-0.5-0.6v-1h-0.4v-0.3h0.4v-0.5h0.3v0.5h0.5V51.4z"/>
	<path class="st0" d="M159.7,52.6c-0.2,0.3-0.4,0.4-0.7,0.4c-0.5,0-0.9-0.4-0.9-1c0-0.6,0.4-1,0.9-1c0.5,0,0.8,0.4,0.8,1v0.1h-1.4
		c0,0.3,0.2,0.6,0.6,0.6c0.2,0,0.4-0.1,0.5-0.3L159.7,52.6z M159.4,51.9c0-0.3-0.2-0.5-0.5-0.5s-0.5,0.2-0.6,0.5H159.4z"/>
	<path class="st0" d="M161.4,51.6c-0.1-0.2-0.3-0.2-0.4-0.2c-0.4,0-0.6,0.3-0.6,0.7s0.2,0.7,0.6,0.7c0.2,0,0.3-0.1,0.4-0.2l0.2,0.2
		c-0.2,0.2-0.4,0.3-0.6,0.3c-0.5,0-0.9-0.4-0.9-1c0-0.6,0.4-1,0.9-1c0.2,0,0.5,0.1,0.6,0.3L161.4,51.6z"/>
	<path class="st0" d="M162.8,51.4h-0.5v0.9c0,0.2,0,0.4,0.3,0.4c0.1,0,0.2,0,0.2-0.1l0,0.3c-0.1,0-0.2,0.1-0.3,0.1
		c-0.4,0-0.5-0.2-0.5-0.6v-1h-0.4v-0.3h0.4v-0.5h0.3v0.5h0.5V51.4z"/>
	<path class="st0" d="M164.6,52.5c0,0.2,0,0.3,0,0.4h-0.3c0-0.1,0-0.2,0-0.3h0c-0.1,0.2-0.3,0.4-0.6,0.4c-0.4,0-0.6-0.3-0.6-0.8
		v-1.2h0.3v1.1c0,0.3,0.1,0.5,0.4,0.5c0.4,0,0.5-0.3,0.5-0.7v-0.9h0.3V52.5z"/>
	<path class="st0" d="M165.2,51.6c0-0.2,0-0.3,0-0.4h0.3c0,0.1,0,0.2,0,0.3h0c0.1-0.2,0.3-0.4,0.6-0.4c0,0,0.1,0,0.1,0l0,0.3
		c0,0-0.1,0-0.2,0c-0.3,0-0.5,0.3-0.5,0.7V53h-0.3V51.6z"/>
	<path class="st0" d="M166.4,51.4c0.2-0.2,0.4-0.3,0.7-0.3c0.5,0,0.7,0.3,0.7,0.8v0.8c0,0.1,0,0.2,0,0.3h-0.3c0-0.1,0-0.2,0-0.3h0
		c-0.1,0.2-0.3,0.3-0.6,0.3c-0.3,0-0.6-0.2-0.6-0.6c0-0.6,0.6-0.7,1.1-0.7h0.1v-0.1c0-0.3-0.2-0.4-0.4-0.4c-0.2,0-0.4,0.1-0.5,0.2
		L166.4,51.4z M167.2,52.1c-0.4,0-0.6,0.1-0.6,0.4c0,0.2,0.2,0.3,0.4,0.3c0.3,0,0.5-0.3,0.5-0.6v-0.1H167.2z"/>
	<path class="st0" d="M168.3,50h0.3v3h-0.3V50z"/>
	<path class="st0" d="M172,50.7c-0.2-0.2-0.4-0.3-0.6-0.3c-0.6,0-1,0.6-1,1.2c0,0.7,0.4,1.2,1,1.2c0.3,0,0.6-0.1,0.7-0.4l0.2,0.2
		c-0.2,0.3-0.6,0.5-1,0.5c-0.7,0-1.3-0.6-1.3-1.5c0-0.8,0.5-1.5,1.3-1.5c0.3,0,0.7,0.1,0.9,0.4L172,50.7z"/>
	<path class="st0" d="M173.5,51.1c0.5,0,0.9,0.4,0.9,1c0,0.6-0.4,1-0.9,1s-0.9-0.4-0.9-1C172.6,51.5,173,51.1,173.5,51.1z
		 M173.5,52.8c0.4,0,0.6-0.3,0.6-0.7s-0.2-0.7-0.6-0.7c-0.4,0-0.6,0.3-0.6,0.7S173.1,52.8,173.5,52.8z"/>
	<path class="st0" d="M174.8,51.6c0-0.2,0-0.3,0-0.4h0.3c0,0.1,0,0.2,0,0.3h0c0.1-0.2,0.3-0.4,0.6-0.4c0.4,0,0.6,0.3,0.6,0.8V53H176
		v-1.1c0-0.3-0.1-0.5-0.4-0.5c-0.4,0-0.5,0.3-0.5,0.7V53h-0.3V51.6z"/>
	<path class="st0" d="M176.9,52.5c0.1,0.2,0.2,0.3,0.4,0.3c0.2,0,0.4-0.1,0.4-0.3c0-0.2-0.2-0.3-0.4-0.3c-0.3-0.1-0.6-0.2-0.6-0.5
		c0-0.4,0.3-0.6,0.6-0.6c0.2,0,0.5,0.1,0.6,0.3l-0.2,0.2c-0.1-0.1-0.2-0.2-0.4-0.2c-0.2,0-0.3,0.1-0.3,0.3c0,0.2,0.2,0.2,0.4,0.3
		c0.3,0.1,0.6,0.2,0.6,0.6c0,0.4-0.3,0.6-0.7,0.6c-0.3,0-0.5-0.1-0.7-0.3L176.9,52.5z"/>
	<path class="st0" d="M179.8,52.5c0,0.2,0,0.3,0,0.4h-0.3c0-0.1,0-0.2,0-0.3h0c-0.1,0.2-0.3,0.4-0.6,0.4c-0.4,0-0.6-0.3-0.6-0.8
		v-1.2h0.3v1.1c0,0.3,0.1,0.5,0.4,0.5c0.4,0,0.5-0.3,0.5-0.7v-0.9h0.3V52.5z"/>
	<path class="st0" d="M180.4,50h0.3v3h-0.3V50z"/>
	<path class="st0" d="M182.2,51.4h-0.5v0.9c0,0.2,0,0.4,0.3,0.4c0.1,0,0.2,0,0.2-0.1l0,0.3c-0.1,0-0.2,0.1-0.3,0.1
		c-0.4,0-0.5-0.2-0.5-0.6v-1H181v-0.3h0.4v-0.5h0.3v0.5h0.5V51.4z"/>
	<path class="st0" d="M182.5,51.4c0.2-0.2,0.4-0.3,0.7-0.3c0.5,0,0.7,0.3,0.7,0.8v0.8c0,0.1,0,0.2,0,0.3h-0.3c0-0.1,0-0.2,0-0.3h0
		c-0.1,0.2-0.3,0.3-0.6,0.3c-0.3,0-0.6-0.2-0.6-0.6c0-0.6,0.6-0.7,1.1-0.7h0.1v-0.1c0-0.3-0.2-0.4-0.4-0.4c-0.2,0-0.4,0.1-0.5,0.2
		L182.5,51.4z M183.3,52.1c-0.4,0-0.6,0.1-0.6,0.4c0,0.2,0.2,0.3,0.4,0.3c0.3,0,0.5-0.3,0.5-0.6v-0.1H183.3z"/>
	<path class="st0" d="M184.4,51.6c0-0.2,0-0.3,0-0.4h0.3c0,0.1,0,0.2,0,0.3h0c0.1-0.2,0.3-0.4,0.6-0.4c0.4,0,0.6,0.3,0.6,0.8V53
		h-0.3v-1.1c0-0.3-0.1-0.5-0.4-0.5c-0.4,0-0.5,0.3-0.5,0.7V53h-0.3V51.6z"/>
	<path class="st0" d="M187.3,51.4h-0.5v0.9c0,0.2,0,0.4,0.3,0.4c0.1,0,0.2,0,0.2-0.1l0,0.3c-0.1,0-0.2,0.1-0.3,0.1
		c-0.4,0-0.5-0.2-0.5-0.6v-1h-0.4v-0.3h0.4v-0.5h0.3v0.5h0.5V51.4z"/>
	<path class="st0" d="M187.7,52.5c0.1,0.2,0.2,0.3,0.4,0.3c0.2,0,0.4-0.1,0.4-0.3c0-0.2-0.2-0.3-0.4-0.3c-0.3-0.1-0.6-0.2-0.6-0.5
		c0-0.4,0.3-0.6,0.6-0.6c0.2,0,0.5,0.1,0.6,0.3l-0.2,0.2c-0.1-0.1-0.2-0.2-0.4-0.2c-0.2,0-0.3,0.1-0.3,0.3c0,0.2,0.2,0.2,0.4,0.3
		c0.3,0.1,0.6,0.2,0.6,0.6c0,0.4-0.3,0.6-0.7,0.6c-0.3,0-0.5-0.1-0.7-0.3L187.7,52.5z"/>
	<path class="st0" d="M190.2,50.2h0.3v2.5h1.2V53h-1.5V50.2z"/>
	<path class="st0" d="M192.4,52.8c0,0.1-0.1,0.2-0.2,0.2c-0.1,0-0.2-0.1-0.2-0.2s0.1-0.2,0.2-0.2C192.3,52.5,192.4,52.6,192.4,52.8z
		"/>
	<path class="st0" d="M194.7,50.5h-0.8V53h-0.3v-2.5h-0.8v-0.3h2V50.5z"/>
	<path class="st0" d="M195.1,52.8c0,0.1-0.1,0.2-0.2,0.2c-0.1,0-0.2-0.1-0.2-0.2s0.1-0.2,0.2-0.2C195,52.5,195.1,52.6,195.1,52.8z"
		/>
	<path class="st0" d="M195.6,50.2h1c0.5,0,1.2,0.4,1.2,1.4c0,1-0.7,1.4-1.2,1.4h-1V50.2z M195.9,52.7h0.6c0.6,0,1-0.3,1-1.1
		s-0.4-1.1-1-1.1h-0.6V52.7z"/>
	<path class="st0" d="M198.8,52.8c0,0.1-0.1,0.2-0.2,0.2c-0.1,0-0.2-0.1-0.2-0.2s0.1-0.2,0.2-0.2C198.7,52.5,198.8,52.6,198.8,52.8z
		"/>
</g>
<g>
	<path class="st0" d="M35.7,50.2h1.1c0.6,0,1.4,0.4,1.4,1.4c0,1-0.8,1.4-1.4,1.4h-1.1V50.2z M36,52.7h0.6c0.6,0,1.1-0.3,1.1-1.1
		s-0.5-1.1-1.1-1.1H36V52.7z"/>
	<path class="st0" d="M40.3,52.6c-0.2,0.3-0.5,0.4-0.8,0.4c-0.6,0-0.9-0.4-0.9-1c0-0.6,0.4-1,1-1c0.5,0,0.9,0.4,0.9,1v0.1h-1.5
		c0,0.3,0.3,0.6,0.6,0.6c0.3,0,0.4-0.1,0.6-0.3L40.3,52.6z M40.1,51.9c0-0.3-0.2-0.5-0.6-0.5s-0.6,0.2-0.6,0.5H40.1z"/>
	<path class="st0" d="M40.9,52.5c0.1,0.2,0.3,0.3,0.5,0.3c0.2,0,0.4-0.1,0.4-0.3c0-0.2-0.2-0.3-0.4-0.3c-0.4-0.1-0.7-0.2-0.7-0.5
		c0-0.4,0.4-0.6,0.7-0.6c0.3,0,0.5,0.1,0.6,0.3l-0.3,0.2c-0.1-0.1-0.2-0.2-0.4-0.2c-0.2,0-0.4,0.1-0.4,0.3c0,0.2,0.2,0.2,0.5,0.3
		c0.3,0.1,0.6,0.2,0.6,0.6c0,0.4-0.4,0.6-0.7,0.6c-0.3,0-0.5-0.1-0.7-0.3L40.9,52.5z"/>
	<path class="st0" d="M42.8,50.2c0.1,0,0.2,0.1,0.2,0.2c0,0.1-0.1,0.2-0.2,0.2s-0.2-0.1-0.2-0.2C42.5,50.3,42.6,50.2,42.8,50.2z
		 M42.6,51.1h0.3V53h-0.3V51.1z"/>
	<path class="st0" d="M45.4,52.9c0,0.7-0.4,1-1,1c-0.4,0-0.7-0.1-0.9-0.4l0.2-0.3c0.2,0.2,0.4,0.3,0.7,0.3c0.6,0,0.7-0.4,0.7-0.8
		v-0.2h0c-0.1,0.2-0.4,0.3-0.7,0.3c-0.6,0-1-0.4-1-1c0-0.6,0.4-1,1-1c0.3,0,0.5,0.1,0.7,0.4h0v-0.3h0.3V52.9z M44.4,52.7
		c0.4,0,0.7-0.3,0.7-0.7c0-0.4-0.3-0.7-0.7-0.7c-0.4,0-0.7,0.3-0.7,0.7C43.8,52.4,44.1,52.7,44.4,52.7z"/>
	<path class="st0" d="M46,51.6c0-0.2,0-0.3,0-0.4h0.3c0,0.1,0,0.2,0,0.3h0c0.1-0.2,0.3-0.4,0.6-0.4c0.5,0,0.7,0.3,0.7,0.8V53h-0.3
		v-1.1c0-0.3-0.1-0.5-0.4-0.5c-0.4,0-0.6,0.3-0.6,0.7V53H46V51.6z"/>
	<path class="st0" d="M49.4,50.2h1.8v0.3h-1.4v0.9H51v0.3h-1.3V53h-0.3V50.2z"/>
	<path class="st0" d="M51.7,50.2c0.1,0,0.2,0.1,0.2,0.2c0,0.1-0.1,0.2-0.2,0.2s-0.2-0.1-0.2-0.2C51.5,50.3,51.6,50.2,51.7,50.2z
		 M51.6,51.1h0.3V53h-0.3V51.1z"/>
	<path class="st0" d="M53.5,51.4H53v0.9c0,0.2,0,0.4,0.3,0.4c0.1,0,0.2,0,0.3-0.1l0,0.3c-0.1,0-0.2,0.1-0.4,0.1
		c-0.4,0-0.5-0.2-0.5-0.6v-1h-0.4v-0.3h0.4v-0.5H53v0.5h0.6V51.4z"/>
	<path class="st0" d="M53.8,51.9h1v0.3h-1V51.9z"/>
	<path class="st0" d="M55.1,51.6c0-0.9,0.6-1.5,1.5-1.5s1.5,0.6,1.5,1.5s-0.6,1.5-1.5,1.5S55.1,52.4,55.1,51.6z M57.7,51.6
		c0-0.7-0.5-1.2-1.1-1.2c-0.7,0-1.1,0.5-1.1,1.2s0.5,1.2,1.1,1.2C57.3,52.8,57.7,52.2,57.7,51.6z"/>
	<path class="st0" d="M60.2,52.5c0,0.2,0,0.3,0,0.4h-0.3c0-0.1,0-0.2,0-0.3h0c-0.1,0.2-0.3,0.4-0.6,0.4c-0.5,0-0.7-0.3-0.7-0.8v-1.2
		h0.3v1.1c0,0.3,0.1,0.5,0.4,0.5c0.4,0,0.6-0.3,0.6-0.7v-0.9h0.3V52.5z"/>
	<path class="st0" d="M61.8,51.4h-0.6v0.9c0,0.2,0,0.4,0.3,0.4c0.1,0,0.2,0,0.3-0.1l0,0.3c-0.1,0-0.2,0.1-0.4,0.1
		C61,53,61,52.8,61,52.4v-1h-0.4v-0.3H61v-0.5h0.3v0.5h0.6V51.4z"/>
	<path class="st0" d="M63.4,50.2h0.7c0.5,0,1.1,0.1,1.1,0.8c0,0.4-0.3,0.7-0.7,0.7l0.8,1.3h-0.4l-0.8-1.3h-0.4V53h-0.3V50.2z
		 M63.7,51.4H64c0.4,0,0.9,0,0.9-0.5c0-0.4-0.4-0.5-0.7-0.5h-0.5V51.4z"/>
	<path class="st0" d="M67.4,52.6C67.2,52.9,67,53,66.6,53c-0.6,0-0.9-0.4-0.9-1c0-0.6,0.4-1,1-1c0.5,0,0.9,0.4,0.9,1v0.1H66
		c0,0.3,0.3,0.6,0.6,0.6c0.3,0,0.4-0.1,0.6-0.3L67.4,52.6z M67.2,51.9c0-0.3-0.2-0.5-0.6-0.5S66,51.6,66,51.9H67.2z"/>
	<path class="st0" d="M68,51.6c0-0.2,0-0.3,0-0.4h0.3c0,0.1,0,0.2,0,0.3h0c0.1-0.2,0.3-0.4,0.6-0.4c0.5,0,0.7,0.3,0.7,0.8V53h-0.3
		v-1.1c0-0.3-0.1-0.5-0.4-0.5c-0.4,0-0.6,0.3-0.6,0.7V53H68V51.6z"/>
	<path class="st0" d="M71.1,51.1c0.6,0,1,0.4,1,1c0,0.6-0.4,1-1,1c-0.6,0-1-0.4-1-1C70.1,51.5,70.5,51.1,71.1,51.1z M71.1,52.8
		c0.4,0,0.7-0.3,0.7-0.7s-0.3-0.7-0.7-0.7c-0.4,0-0.7,0.3-0.7,0.7S70.7,52.8,71.1,52.8z"/>
	<path class="st0" d="M73.5,53h-0.3l-0.8-1.9h0.4l0.6,1.5h0l0.6-1.5h0.3L73.5,53z"/>
	<path class="st0" d="M74.5,51.4c0.2-0.2,0.5-0.3,0.7-0.3c0.6,0,0.8,0.3,0.8,0.8v0.8c0,0.1,0,0.2,0,0.3h-0.3c0-0.1,0-0.2,0-0.3h0
		c-0.1,0.2-0.3,0.3-0.6,0.3c-0.4,0-0.7-0.2-0.7-0.6c0-0.6,0.7-0.7,1.2-0.7h0.1v-0.1c0-0.3-0.2-0.4-0.5-0.4c-0.2,0-0.4,0.1-0.6,0.2
		L74.5,51.4z M75.4,52.1c-0.4,0-0.7,0.1-0.7,0.4c0,0.2,0.2,0.3,0.4,0.3c0.4,0,0.5-0.3,0.6-0.6v-0.1H75.4z"/>
	<path class="st0" d="M77.6,51.4h-0.6v0.9c0,0.2,0,0.4,0.3,0.4c0.1,0,0.2,0,0.3-0.1l0,0.3c-0.1,0-0.2,0.1-0.4,0.1
		c-0.4,0-0.5-0.2-0.5-0.6v-1h-0.4v-0.3h0.4v-0.5h0.3v0.5h0.6V51.4z"/>
	<path class="st0" d="M78.2,50.2c0.1,0,0.2,0.1,0.2,0.2c0,0.1-0.1,0.2-0.2,0.2S78,50.5,78,50.4C78,50.3,78.1,50.2,78.2,50.2z
		 M78,51.1h0.3V53H78V51.1z"/>
	<path class="st0" d="M79.9,51.1c0.6,0,1,0.4,1,1c0,0.6-0.4,1-1,1c-0.6,0-1-0.4-1-1C78.9,51.5,79.3,51.1,79.9,51.1z M79.9,52.8
		c0.4,0,0.7-0.3,0.7-0.7s-0.3-0.7-0.7-0.7c-0.4,0-0.7,0.3-0.7,0.7S79.5,52.8,79.9,52.8z"/>
	<path class="st0" d="M81.3,51.6c0-0.2,0-0.3,0-0.4h0.3c0,0.1,0,0.2,0,0.3h0c0.1-0.2,0.3-0.4,0.6-0.4c0.5,0,0.7,0.3,0.7,0.8V53h-0.3
		v-1.1c0-0.3-0.1-0.5-0.4-0.5c-0.4,0-0.6,0.3-0.6,0.7V53h-0.3V51.6z"/>
	<path class="st0" d="M83.6,52.5c0.1,0.2,0.3,0.3,0.5,0.3c0.2,0,0.4-0.1,0.4-0.3c0-0.2-0.2-0.3-0.4-0.3c-0.4-0.1-0.7-0.2-0.7-0.5
		c0-0.4,0.4-0.6,0.7-0.6c0.3,0,0.5,0.1,0.6,0.3l-0.3,0.2c-0.1-0.1-0.2-0.2-0.4-0.2c-0.2,0-0.4,0.1-0.4,0.3c0,0.2,0.2,0.2,0.5,0.3
		c0.3,0.1,0.6,0.2,0.6,0.6c0,0.4-0.4,0.6-0.7,0.6c-0.3,0-0.5-0.1-0.7-0.3L83.6,52.5z"/>
	<path class="st0" d="M86.4,50.2h0.3v2.5h1.3V53h-1.6V50.2z"/>
	<path class="st0" d="M88.9,52.8c0,0.1-0.1,0.2-0.2,0.2s-0.2-0.1-0.2-0.2s0.1-0.2,0.2-0.2S88.9,52.6,88.9,52.8z"/>
	<path class="st0" d="M89.6,50.2h0.3v2.5h1.3V53h-1.6V50.2z"/>
	<path class="st0" d="M92,52.8c0,0.1-0.1,0.2-0.2,0.2s-0.2-0.1-0.2-0.2s0.1-0.2,0.2-0.2S92,52.6,92,52.8z"/>
	<path class="st0" d="M94.7,50.7c-0.2-0.2-0.4-0.3-0.7-0.3c-0.6,0-1.1,0.6-1.1,1.2c0,0.7,0.4,1.2,1.1,1.2c0.3,0,0.6-0.1,0.8-0.4
		l0.3,0.2c-0.3,0.3-0.6,0.5-1.1,0.5c-0.8,0-1.4-0.6-1.4-1.5c0-0.8,0.6-1.5,1.4-1.5c0.4,0,0.8,0.1,1,0.4L94.7,50.7z"/>
	<path class="st0" d="M95.9,52.8c0,0.1-0.1,0.2-0.2,0.2s-0.2-0.1-0.2-0.2s0.1-0.2,0.2-0.2S95.9,52.6,95.9,52.8z"/>
</g>
</svg>
