<?xml version="1.0" encoding="utf-8"?>
<!-- Generator: Adobe Illustrator 27.2.0, SVG Export Plug-In . SVG Version: 6.00 Build 0)  -->
<svg version="1.1" id="Layer_1" xmlns="http://www.w3.org/2000/svg" xmlns:xlink="http://www.w3.org/1999/xlink" x="0px" y="0px"
	 viewBox="0 0 82.6 35" style="enable-background:new 0 0 82.6 35;" xml:space="preserve">
<style type="text/css">
	.st0{fill:#3E3F3F;}
</style>
<g>
	<path class="st0" d="M13.9,9.6c0-0.1,0-0.2,0-0.3c-0.5-1-0.9-2-1.3-3c-0.1-0.2-0.2-0.5-0.3-0.7C8.2,15.4,4.1,25.2,0,34.9
		c1.1,0,2.2,0,3.3,0v-0.1c0.7-1.6,1.4-3.3,2.1-4.9c1.5-3.5,3-7.1,4.5-10.7C11.2,16,12.6,12.8,13.9,9.6z"/>
	<path class="st0" d="M13,3.9c2.6,6.4,5.3,12.7,7.9,19.1c1.1,0,2.2,0,3.3,0C21,15.3,17.8,7.7,14.6,0C14,1.3,13.5,2.6,13,3.9z"/>
	<path class="st0" d="M14.4,11.2c-1.1,2.8-2.3,5.5-3.4,8.3c-0.5,1.1-1,2.2-1.4,3.3c0,0.1-0.1,0.1,0,0.2c1.7,0,3.3,0,5,0
		c0-1.7,0-3.3,0-4.9c0.3,0,0.5,0,0.7-0.1c0.2,0,0.5,0,0.7,0s0.4,0,0.7,0s0.5,0,0.8,0c-1-2.3-2-4.7-3-7.1
		C14.5,11,14.4,11.1,14.4,11.2z"/>
	<path class="st0" d="M35.1,18.8c-1,1.2-2.2,1.8-3.8,1.8c-2.8,0-4.9-2.3-4.9-5.4c0-3.1,2.2-5.4,4.9-5.4c1.3,0,2.4,0.6,3.1,1.5
		l0.3,0.4l2.4-1.6l-0.3-0.4c-1.2-1.6-3.1-2.5-5.4-2.5c-2.1,0-4.1,0.8-5.5,2.2c-1.5,1.5-2.3,3.6-2.2,5.9c0,4.5,3.3,7.9,7.7,7.9
		c2.5,0,4.4-0.9,5.7-2.7l0.3-0.4l-2-1.7L35.1,18.8z"/>
	<polygon class="st0" points="38.3,9.8 43.2,9.8 43.2,23.1 46,23.1 46,9.8 50.9,9.8 50.9,7.1 38.3,7.1 	"/>
	<path class="st0" d="M59.4,7.1c-4.6,0-7.9,3.3-7.9,7.9c0,4.6,3.3,7.9,7.9,7.9c4.6,0,7.9-3.3,7.9-7.9C67.3,10.5,64,7.1,59.4,7.1z
		 M59.4,20.5c-2.9,0-5.1-2.3-5.1-5.4c0-3.2,2.1-5.4,5.1-5.4c2.9,0,5.1,2.3,5.1,5.4C64.5,18.2,62.4,20.5,59.4,20.5z"/>
	<polygon class="st0" points="79.5,7.1 79.5,18.5 71.6,7.1 68.6,7.1 68.6,23.1 71.4,23.1 71.4,11.6 79.3,23 82.3,23 82.3,7.1 	"/>
</g>
</svg>
