<?xml version="1.0" encoding="utf-8"?>
<!-- Generator: Adobe Illustrator 27.2.0, SVG Export Plug-In . SVG Version: 6.00 Build 0)  -->
<svg version="1.1" id="Layer_1" xmlns="http://www.w3.org/2000/svg" xmlns:xlink="http://www.w3.org/1999/xlink" x="0px" y="0px"
	 viewBox="0 0 140 202.1" style="enable-background:new 0 0 140 202.1;" xml:space="preserve">
<style type="text/css">
	.st0{fill:#3E3F3F;}
</style>
<g>
	<path class="st0" d="M71.3,31.9c0.6,1.4,1.2,2.7,1.7,4.1c2.4,5.8,4.8,11.7,7.3,17.5c0.2,0.6,0.2,1.1,0,1.6
		C72.6,73.8,64.8,92.4,57,111c-8.6,20.7-17.3,41.4-25.9,62.2c-4,9.5-7.9,19-11.9,28.5c-0.1,0.2-0.2,0.4-0.3,0.7
		c-6.2,0-12.5,0-18.9,0C23.7,145.5,47.4,88.7,71.1,31.9C71.2,31.9,71.2,31.9,71.3,31.9z"/>
	<path class="st0" d="M140,132.9c-6.4,0-12.6,0-19,0C105.7,96.1,90.3,59.3,75,22.4c3.1-7.5,6.2-14.9,9.5-22.7
		C103,44.3,121.5,88.5,140,132.9z"/>
	<path class="st0" d="M84.7,104.8c0,9.5,0,18.8,0,28.1c-9.7,0-19.3,0-28.9,0c-0.3-0.5,0.1-0.8,0.2-1.1c2.6-6.3,5.3-12.6,7.9-18.9
		C70.5,97,77.1,81.1,83.7,65.1c0.2-0.5,0.4-1,0.8-1.7c5.8,13.9,11.5,27.5,17.2,41.3c-1.5,0.1-2.9,0-4.3,0.1c-1.4,0-2.8,0-4.2,0
		c-1.4,0-2.9,0-4.3,0C87.6,104.8,86.2,104.8,84.7,104.8z"/>
</g>
</svg>
