<?xml version="1.0" encoding="utf-8"?>
<!-- Generator: Adobe Illustrator 27.2.0, SVG Export Plug-In . SVG Version: 6.00 Build 0)  -->
<svg version="1.1" id="Layer_1" xmlns="http://www.w3.org/2000/svg" xmlns:xlink="http://www.w3.org/1999/xlink" x="0px" y="0px"
	 viewBox="0 0 338.87 45" style="enable-background:new 0 0 338.87 45;" xml:space="preserve">
<style type="text/css">
	.st0{fill:#3E3F3F;}
</style>
<g>
	<g>
		<path class="st0" d="M167.9,15.5c1.07,0,2.06-0.44,2.73-1.18c0.69,0.71,1.66,1.18,2.73,1.18s2.06-0.44,2.73-1.18
			c0.69,0.71,1.66,1.18,2.73,1.18c2.08,0,3.78-1.7,3.78-3.78c0-2.1-1.7-3.78-3.78-3.78c-1.07,0-2.06,0.46-2.73,1.18
			c-0.69-0.71-1.66-1.18-2.73-1.18s-2.06,0.46-2.73,1.18c-0.69-0.71-1.66-1.18-2.73-1.18c-2.08,0-3.78,1.7-3.78,3.78
			C164.12,13.8,165.82,15.5,167.9,15.5z"/>
		<path class="st0" d="M188.02,26.44c0-1.83-1.3-3.36-3.04-3.7c1.7-0.36,2.98-1.89,2.98-3.7c0-2.08-1.7-3.78-3.78-3.78
			c-2.08,0-3.78,1.7-3.78,3.78c0,1.83,1.3,3.36,3.04,3.72c-0.76,0.17-1.43,0.55-1.93,1.09c-0.69-0.69-1.64-1.11-2.67-1.11
			c-1.07,0-2.06,0.44-2.73,1.18c-0.69-0.71-1.66-1.18-2.73-1.18c-1.07,0-2.06,0.44-2.73,1.18c-0.69-0.71-1.66-1.18-2.73-1.18
			c-2.1,0-3.8,1.68-3.8,3.76s1.7,3.78,3.78,3.78c1.07,0,2.06-0.46,2.73-1.18c0.69,0.71,1.66,1.18,2.73,1.18
			c1.07,0,2.06-0.46,2.73-1.18c0.69,0.71,1.66,1.18,2.73,1.18s2.06-0.46,2.73-1.18c0.48,0.48,1.09,0.84,1.76,1.01
			c-1.64,0.42-2.86,1.89-2.86,3.65c0,1.72,1.15,3.17,2.73,3.63c-0.69,0.19-1.28,0.59-1.74,1.09c-0.67-0.65-1.6-1.05-2.6-1.05
			c-1.07,0-2.06,0.44-2.73,1.18c-0.69-0.71-1.66-1.18-2.73-1.18c-1.07,0-2.06,0.44-2.73,1.18c-0.69-0.71-1.66-1.18-2.73-1.18
			c-2.08,0-3.78,1.68-3.78,3.78s1.7,3.78,3.78,3.78c1.07,0,2.06-0.46,2.73-1.18c0.69,0.71,1.66,1.18,2.73,1.18
			c1.07,0,2.06-0.46,2.73-1.18c0.69,0.71,1.66,1.18,2.73,1.18c1.11,0,2.1-0.48,2.79-1.24c0.69,0.65,1.6,1.05,2.6,1.05
			c2.08,0,3.78-1.7,3.78-3.78c0-1.72-1.15-3.17-2.73-3.63c1.57-0.48,2.73-1.93,2.73-3.65c0-1.76-1.22-3.25-2.86-3.65
			C186.8,29.69,188.02,28.2,188.02,26.44z"/>
		<path class="st0" d="M166.22,33.79c0-2.08-1.68-3.76-3.78-3.78c-2.08,0-3.78,1.68-3.78,3.78s1.7,3.78,3.78,3.78
			S166.22,35.87,166.22,33.79z"/>
		<path class="st0" d="M211.58,7.77c-1.11,0-2.14,0.5-2.83,1.28c-0.69-0.78-1.7-1.28-2.81-1.28c-1.09,0-2.06,0.46-2.75,1.2
			c-0.69-0.73-1.66-1.2-2.75-1.2c-2.08,0-3.78,1.7-3.78,3.78s1.7,3.78,3.78,3.78c1.09,0,2.06-0.46,2.75-1.2
			c0.69,0.73,1.66,1.2,2.75,1.2c1.11,0,2.14-0.5,2.81-1.28c0.69,0.78,1.7,1.28,2.83,1.28c2.08,0,3.78-1.68,3.78-3.78
			C215.36,9.47,213.68,7.77,211.58,7.77z"/>
		<path class="st0" d="M239.3,37.13c-1.11,0-2.14,0.5-2.83,1.28c-0.69-0.78-1.7-1.28-2.81-1.28c-1.09,0-2.06,0.46-2.75,1.2
			c-0.69-0.73-1.66-1.2-2.75-1.2c-1.15,0-2.18,0.52-2.88,1.32c-0.55-0.52-1.28-0.9-2.08-1.01c1.83-0.25,3.23-1.83,3.23-3.72
			c0-1.89-1.41-3.46-3.23-3.74c1.83-0.25,3.23-1.83,3.23-3.74c0-1.76-1.22-3.25-2.86-3.65c0.69-0.17,1.32-0.55,1.81-1.05
			c0.67,0.63,1.57,1.03,2.58,1.03c1.09,0,2.06-0.46,2.75-1.2c0.69,0.73,1.66,1.2,2.75,1.2c1.11,0,2.14-0.5,2.81-1.28
			c0.69,0.78,1.7,1.28,2.83,1.28c2.08,0,3.78-1.68,3.78-3.78s-1.68-3.78-3.78-3.78c-1.11,0-2.14,0.5-2.83,1.28
			c-0.69-0.78-1.7-1.28-2.81-1.28c-1.09,0-2.06,0.46-2.75,1.2c-0.69-0.73-1.66-1.2-2.75-1.2c-1.07,0-2.04,0.44-2.73,1.18
			c-0.52-0.5-1.2-0.86-1.95-0.97c1.7-0.38,2.96-1.89,2.96-3.67c0-1.89-1.41-3.46-3.23-3.74c1.83-0.25,3.23-1.83,3.23-3.72
			c0-2.08-1.68-3.78-3.78-3.78s-3.78,1.7-3.78,3.78c0,1.89,1.41,3.46,3.23,3.72c-1.83,0.25-3.23,1.83-3.23,3.74
			c0,1.87,1.36,3.42,3.13,3.72c-1.7,0.38-2.96,1.89-2.96,3.7c0,1.76,1.22,3.25,2.86,3.65c-1.64,0.42-2.86,1.89-2.86,3.65
			c0,1.89,1.41,3.46,3.23,3.74c-1.83,0.25-3.23,1.83-3.23,3.74c0,1.89,1.41,3.46,3.23,3.72c-1.83,0.25-3.23,1.83-3.23,3.74
			c0,2.08,1.7,3.78,3.78,3.78c1.15,0,2.18-0.52,2.88-1.32c0.67,0.65,1.6,1.05,2.6,1.05c1.09,0,2.06-0.46,2.75-1.2
			c0.69,0.73,1.66,1.2,2.75,1.2c1.11,0,2.14-0.5,2.81-1.28c0.69,0.78,1.7,1.28,2.83,1.28c2.08,0,3.78-1.68,3.78-3.78
			C243.08,38.83,241.37,37.13,239.3,37.13z"/>
		<path class="st0" d="M248.26,26.04c0-2.06-1.66-3.72-3.72-3.72s-3.72,1.66-3.72,3.72c0,1.81,1.28,3.3,2.98,3.63
			c-1.7,0.34-2.98,1.83-2.98,3.63c0,2.04,1.66,3.72,3.72,3.72c2.04,0,3.72-1.66,3.72-3.72c0-1.81-1.28-3.3-2.98-3.63
			C246.98,29.34,248.26,27.84,248.26,26.04z"/>
		<path class="st0" d="M198.94,18.94c0-2.08-1.68-3.74-3.74-3.74c-2.08,0-3.74,1.68-3.74,3.74c0,1.81,1.3,3.34,3.02,3.67
			c-1.72,0.34-3.02,1.85-3.02,3.67c0,1.81,1.28,3.32,2.98,3.67c-1.7,0.34-2.98,1.87-2.98,3.67c0,1.81,1.3,3.34,3.02,3.67
			c-1.72,0.34-3.02,1.85-3.02,3.67c0,2.08,1.68,3.74,3.74,3.74c2.08,0,3.74-1.68,3.74-3.74c0-1.81-1.3-3.34-3.02-3.67
			c1.72-0.34,3.02-1.85,3.02-3.67c0-1.81-1.28-3.32-2.98-3.67c1.7-0.36,2.98-1.85,2.98-3.67c0-1.81-1.3-3.34-3.02-3.67
			C197.63,22.28,198.94,20.77,198.94,18.94z"/>
		<path class="st0" d="M261.87,7.75h4.22l0.97,2.79h1.99L265,0h-1.97l-4.05,10.54h1.91L261.87,7.75z M263.99,1.83h0.04l1.57,4.54
			h-3.21L263.99,1.83z"/>
		<path class="st0" d="M271.47,10.52V6.89c0-0.42,0.06-0.78,0.17-1.11c0.1-0.32,0.25-0.59,0.44-0.82c0.19-0.23,0.4-0.4,0.65-0.5
			c0.25-0.1,0.5-0.17,0.8-0.17c0.1,0,0.23,0,0.36,0.02c0.1,0.02,0.23,0.04,0.36,0.06V2.73c-0.08,0-0.15-0.02-0.23-0.02
			c-0.06-0.02-0.21-0.02-0.4-0.02c-0.25,0-0.5,0.06-0.76,0.15c-0.23,0.1-0.46,0.23-0.67,0.4c-0.21,0.17-0.38,0.36-0.52,0.55
			c-0.15,0.19-0.25,0.4-0.29,0.61h-0.02V2.92h-1.57l0.02,7.6H271.47z"/>
		<path class="st0" d="M274.47,8.4c0.17,0.46,0.4,0.9,0.71,1.24c0.31,0.34,0.69,0.61,1.15,0.82c0.46,0.19,0.99,0.29,1.6,0.29
			c0.99,0,1.76-0.25,2.37-0.78c0.61-0.52,0.97-1.3,1.13-2.29h-1.68c-0.08,0.55-0.29,0.97-0.61,1.28c-0.32,0.32-0.71,0.46-1.22,0.46
			c-0.36,0-0.67-0.06-0.92-0.23c-0.25-0.17-0.46-0.36-0.63-0.61c-0.17-0.23-0.29-0.52-0.36-0.84c-0.06-0.32-0.1-0.63-0.1-0.94
			c0-0.57,0.06-1.05,0.21-1.41c0.15-0.36,0.31-0.63,0.52-0.84c0.21-0.21,0.44-0.34,0.69-0.42c0.25-0.06,0.48-0.11,0.69-0.11
			c0.48,0,0.86,0.11,1.18,0.36c0.32,0.23,0.5,0.61,0.57,1.07l1.64,0.04c-0.04-0.46-0.17-0.88-0.36-1.22s-0.44-0.63-0.76-0.86
			c-0.32-0.23-0.67-0.4-1.07-0.5c-0.4-0.1-0.82-0.17-1.26-0.17c-0.61,0-1.18,0.1-1.64,0.32c-0.46,0.19-0.86,0.5-1.18,0.86
			c-0.32,0.36-0.55,0.8-0.71,1.3c-0.15,0.5-0.23,1.05-0.23,1.62C274.22,7.39,274.3,7.92,274.47,8.4z"/>
		<path class="st0" d="M287.4,4.45c0.23,0.27,0.36,0.69,0.38,1.3v4.81h1.68V5.31c0-0.86-0.21-1.51-0.71-1.95s-1.15-0.65-1.99-0.65
			c-0.5,0-0.94,0.1-1.36,0.34c-0.4,0.23-0.71,0.52-0.92,0.86h-0.02V0h-1.68v10.6h1.68V6.09c0-0.27,0.04-0.53,0.13-0.78
			s0.19-0.46,0.36-0.65c0.17-0.19,0.36-0.34,0.59-0.44c0.23-0.1,0.48-0.17,0.78-0.17C286.79,4.05,287.17,4.18,287.4,4.45z"/>
		<rect x="291.23" y="2.92" class="st0" width="1.68" height="7.64"/>
		<rect x="291.23" class="st0" width="1.68" height="1.6"/>
		<path class="st0" d="M295.19,4.16v4.54c0,0.31,0.02,0.59,0.08,0.84c0.06,0.25,0.17,0.44,0.32,0.61c0.15,0.15,0.36,0.27,0.63,0.36
			c0.27,0.08,0.63,0.13,1.07,0.13c0.19,0,0.38,0,0.55-0.02c0.19-0.02,0.36-0.04,0.55-0.06v-1.3c-0.13,0.04-0.23,0.06-0.36,0.06
			s-0.23,0-0.36,0c-0.19,0-0.34-0.02-0.44-0.06c-0.13-0.02-0.19-0.11-0.25-0.19c-0.06-0.1-0.08-0.21-0.1-0.34
			c-0.02-0.13-0.02-0.29-0.02-0.46V4.18h1.53V2.92h-1.53V0.61h-1.68v2.31h-1.28l0.02,1.24H295.19z"/>
		<path class="st0" d="M305.63,4.07c-0.34-0.42-0.71-0.76-1.2-1.01c-0.48-0.25-1.01-0.38-1.62-0.38c-0.57,0-1.09,0.13-1.53,0.34
			c-0.44,0.21-0.84,0.5-1.15,0.88c-0.31,0.36-0.57,0.8-0.73,1.28c-0.17,0.5-0.25,1.01-0.25,1.55c0,0.61,0.08,1.13,0.25,1.64
			c0.15,0.5,0.4,0.92,0.71,1.28c0.32,0.36,0.71,0.63,1.18,0.82c0.46,0.21,0.99,0.29,1.6,0.29c0.42,0,0.82-0.06,1.2-0.17
			c0.38-0.1,0.71-0.27,1.03-0.5c0.29-0.21,0.57-0.48,0.78-0.82c0.21-0.34,0.38-0.69,0.46-1.11h-1.6c-0.15,0.42-0.38,0.73-0.67,0.94
			c-0.32,0.21-0.69,0.32-1.2,0.32c-0.36,0-0.67-0.06-0.92-0.19c-0.25-0.13-0.46-0.29-0.63-0.5c-0.17-0.19-0.29-0.44-0.38-0.71
			c-0.08-0.27-0.13-0.57-0.13-0.86c0,0,5.63,0,5.61,0c0.06-0.57,0.04-1.13-0.11-1.66C306.18,4.96,305.95,4.49,305.63,4.07z
			 M300.86,6.07c0-0.27,0.06-0.55,0.17-0.8c0.1-0.25,0.25-0.46,0.42-0.65c0.17-0.19,0.36-0.34,0.61-0.44c0.23-0.1,0.5-0.17,0.8-0.17
			c0.29,0,0.55,0.06,0.78,0.17c0.23,0.1,0.42,0.27,0.59,0.44c0.15,0.19,0.29,0.4,0.38,0.65c0.08,0.25,0.15,0.52,0.17,0.78
			L300.86,6.07z"/>
		<path class="st0" d="M308.21,9.64c0.32,0.34,0.69,0.61,1.15,0.82c0.46,0.19,0.99,0.29,1.6,0.29c0.99,0,1.76-0.25,2.37-0.78
			c0.61-0.52,0.97-1.3,1.13-2.29h-1.68c-0.08,0.55-0.29,0.97-0.61,1.28c-0.32,0.32-0.71,0.46-1.22,0.46c-0.36,0-0.67-0.08-0.92-0.23
			c-0.25-0.17-0.46-0.36-0.63-0.61c-0.17-0.23-0.27-0.52-0.36-0.84c-0.06-0.32-0.1-0.63-0.1-0.94c0-0.57,0.06-1.05,0.21-1.41
			s0.32-0.63,0.52-0.84c0.21-0.21,0.44-0.34,0.69-0.42c0.25-0.06,0.48-0.11,0.69-0.11c0.48,0,0.86,0.11,1.18,0.36
			c0.32,0.23,0.5,0.61,0.57,1.07l1.64,0.04c-0.04-0.46-0.17-0.88-0.36-1.22c-0.19-0.34-0.44-0.63-0.76-0.86
			c-0.31-0.23-0.67-0.4-1.07-0.5c-0.4-0.1-0.82-0.17-1.26-0.17c-0.61,0-1.18,0.1-1.64,0.32c-0.46,0.19-0.86,0.5-1.18,0.86
			c-0.31,0.36-0.55,0.8-0.71,1.3c-0.15,0.5-0.23,1.05-0.23,1.62c0,0.55,0.08,1.07,0.25,1.55C307.67,8.86,307.9,9.3,308.21,9.64z"/>
		<path class="st0" d="M318,0.61h-1.68v2.31h-1.28l0.02,1.24h1.28v4.54c0,0.31,0.02,0.59,0.08,0.84c0.06,0.25,0.17,0.44,0.32,0.61
			c0.15,0.15,0.36,0.27,0.63,0.36c0.27,0.08,0.63,0.13,1.07,0.13c0.19,0,0.38,0,0.55-0.02c0.19-0.02,0.36-0.04,0.55-0.06v-1.3
			c-0.13,0.04-0.23,0.06-0.36,0.06c-0.13,0-0.23,0-0.36,0c-0.19,0-0.34-0.02-0.44-0.06c-0.13-0.02-0.19-0.11-0.25-0.19
			c-0.06-0.1-0.08-0.21-0.1-0.34C318,8.59,318,8.42,318,8.25V4.18h1.53V2.92H318V0.61z"/>
		<path class="st0" d="M324.86,10.6c0.42-0.1,0.78-0.25,1.11-0.44c0.32-0.21,0.59-0.46,0.8-0.78c0.21-0.32,0.31-0.71,0.31-1.15
			c0-0.38-0.06-0.69-0.21-0.94c-0.15-0.25-0.34-0.46-0.57-0.63c-0.23-0.17-0.5-0.29-0.8-0.4c-0.29-0.1-0.59-0.19-0.9-0.25
			c-0.32-0.06-0.63-0.13-0.92-0.19c-0.29-0.04-0.57-0.13-0.8-0.21c-0.23-0.08-0.42-0.19-0.57-0.32c-0.13-0.13-0.21-0.29-0.21-0.5
			c0-0.15,0.04-0.29,0.15-0.4s0.21-0.19,0.36-0.23c0.15-0.04,0.29-0.08,0.46-0.1c0.17-0.02,0.29-0.02,0.42-0.02
			c0.38,0,0.71,0.06,1.01,0.21c0.29,0.15,0.46,0.42,0.55,0.82h1.78c-0.04-0.42-0.17-0.8-0.36-1.09c-0.19-0.29-0.42-0.55-0.71-0.73
			c-0.27-0.19-0.61-0.32-0.97-0.4s-0.73-0.13-1.13-0.13c-0.36,0-0.71,0.04-1.09,0.1c-0.38,0.06-0.71,0.19-1.03,0.36
			c-0.31,0.19-0.57,0.42-0.78,0.69c-0.19,0.27-0.29,0.61-0.29,1.03c0,0.38,0.06,0.71,0.21,0.97c0.13,0.27,0.31,0.48,0.55,0.65
			c0.23,0.17,0.48,0.32,0.78,0.4c0.29,0.1,0.59,0.19,0.9,0.25c0.29,0.06,0.61,0.13,0.9,0.19c0.27,0.04,0.55,0.13,0.78,0.21
			c0.23,0.08,0.42,0.19,0.57,0.34c0.15,0.13,0.23,0.32,0.23,0.52s-0.06,0.4-0.17,0.52c-0.13,0.13-0.27,0.23-0.44,0.29
			c-0.17,0.06-0.36,0.13-0.57,0.15c-0.21,0.04-0.38,0.04-0.55,0.04c-0.46,0-0.84-0.1-1.18-0.29c-0.34-0.19-0.52-0.52-0.57-1.03
			l-1.66-0.04c0.02,0.46,0.1,0.86,0.27,1.18c0.17,0.31,0.42,0.59,0.71,0.82c0.29,0.23,0.65,0.4,1.07,0.5s0.86,0.17,1.34,0.17
			C324.07,10.73,324.47,10.69,324.86,10.6z"/>
		<path class="st0" d="M267.33,24.61c0-0.42-0.06-0.76-0.17-1.03c-0.1-0.27-0.23-0.5-0.4-0.67c-0.17-0.17-0.36-0.29-0.52-0.38
			c-0.17-0.08-0.34-0.13-0.5-0.15v-0.02c0.08-0.02,0.23-0.08,0.42-0.17c0.19-0.1,0.4-0.23,0.59-0.44c0.21-0.19,0.38-0.48,0.52-0.8
			c0.15-0.32,0.23-0.73,0.23-1.24c0-0.9-0.27-1.6-0.86-2.1c-0.57-0.5-1.45-0.76-2.6-0.76h-5.04l-0.04,10.56h1.85v-4.35h2.73
			c0.42,0,0.76,0.06,1.03,0.17c0.27,0.1,0.48,0.27,0.65,0.5c0.17,0.23,0.27,0.52,0.34,0.86c0.06,0.34,0.08,0.76,0.08,1.24
			c0,0.25,0.02,0.52,0.04,0.8c0.04,0.27,0.1,0.52,0.25,0.76h1.99c-0.19-0.23-0.36-0.59-0.44-1.09
			C267.37,25.81,267.33,25.22,267.33,24.61z M265.21,21.23c-0.32,0.27-0.76,0.42-1.34,0.42h-3.02v-3.3h3c0.25,0,0.46,0.02,0.69,0.06
			c0.23,0.04,0.42,0.1,0.59,0.23s0.29,0.29,0.4,0.5c0.1,0.21,0.15,0.48,0.15,0.82C265.67,20.54,265.52,20.96,265.21,21.23z"/>
		<path class="st0" d="M268.71,23.6c0,0.61,0.08,1.13,0.25,1.64c0.15,0.5,0.4,0.92,0.71,1.28c0.31,0.36,0.71,0.63,1.18,0.82
			c0.46,0.21,0.99,0.29,1.6,0.29c0.42,0,0.82-0.06,1.2-0.17s0.71-0.27,1.03-0.5c0.29-0.21,0.57-0.48,0.78-0.82
			c0.21-0.34,0.38-0.69,0.46-1.11h-1.6c-0.15,0.42-0.38,0.73-0.67,0.94c-0.31,0.21-0.69,0.32-1.2,0.32c-0.36,0-0.67-0.06-0.92-0.19
			c-0.25-0.13-0.46-0.29-0.63-0.5c-0.17-0.19-0.29-0.44-0.38-0.71c-0.08-0.27-0.13-0.57-0.13-0.86H276c0.06-0.57,0.04-1.13-0.1-1.66
			c-0.15-0.55-0.38-1.01-0.69-1.43c-0.34-0.42-0.71-0.76-1.2-1.01c-0.48-0.25-1.01-0.38-1.62-0.38c-0.57,0-1.09,0.13-1.53,0.34
			c-0.44,0.21-0.84,0.5-1.15,0.88c-0.32,0.36-0.57,0.8-0.73,1.28C268.8,22.55,268.71,23.06,268.71,23.6z M270.58,22.13
			c0.1-0.25,0.25-0.46,0.42-0.65c0.17-0.19,0.38-0.34,0.61-0.44c0.23-0.1,0.5-0.17,0.8-0.17c0.29,0,0.55,0.06,0.78,0.17
			c0.23,0.1,0.42,0.27,0.59,0.44c0.15,0.19,0.29,0.4,0.38,0.65c0.08,0.25,0.15,0.52,0.17,0.78l-3.91,0.02
			C270.42,22.66,270.48,22.38,270.58,22.13z"/>
		<path class="st0" d="M282.13,28.71c-0.31,0.34-0.8,0.5-1.49,0.5c-0.21,0-0.42-0.02-0.61-0.04c-0.21-0.02-0.38-0.08-0.55-0.17
			c-0.17-0.08-0.29-0.19-0.42-0.34c-0.13-0.15-0.21-0.36-0.25-0.59h-1.68c0.04,0.42,0.17,0.8,0.38,1.11
			c0.21,0.29,0.48,0.55,0.8,0.73c0.34,0.19,0.67,0.32,1.07,0.4c0.38,0.08,0.78,0.13,1.15,0.13c1.22,0,2.14-0.29,2.79-0.86
			c0.63-0.57,0.97-1.43,0.97-2.58l0.02-7.24h-1.68v1.05h-0.02c-0.21-0.42-0.52-0.73-0.92-0.94c-0.4-0.19-0.84-0.29-1.32-0.29
			c-0.55,0-1.03,0.1-1.47,0.32c-0.44,0.21-0.8,0.5-1.09,0.84c-0.32,0.36-0.55,0.76-0.69,1.22c-0.15,0.46-0.23,0.94-0.23,1.47
			c0,0.55,0.06,1.07,0.19,1.55c0.13,0.48,0.34,0.9,0.61,1.28c0.29,0.36,0.65,0.65,1.07,0.86c0.42,0.21,0.94,0.31,1.55,0.31
			c0.46,0,0.9-0.13,1.32-0.36c0.4-0.23,0.73-0.57,0.97-0.99h0.02v1.18C282.62,27.89,282.45,28.37,282.13,28.71z M282.47,24.38
			c-0.08,0.34-0.19,0.61-0.36,0.86c-0.15,0.25-0.38,0.46-0.63,0.61s-0.57,0.23-0.94,0.23c-0.36,0-0.65-0.08-0.92-0.25
			c-0.25-0.15-0.44-0.36-0.61-0.59s-0.27-0.5-0.36-0.8c-0.08-0.29-0.13-0.61-0.13-0.92c0-0.32,0.04-0.63,0.1-0.94
			c0.06-0.34,0.17-0.61,0.34-0.86c0.15-0.25,0.36-0.44,0.61-0.61c0.25-0.15,0.57-0.23,0.94-0.23s0.69,0.06,0.94,0.21
			s0.46,0.34,0.63,0.57c0.17,0.23,0.27,0.5,0.36,0.82c0.08,0.31,0.13,0.61,0.13,0.94C282.57,23.73,282.55,24.06,282.47,24.38z"/>
		<rect x="285.95" y="19.76" class="st0" width="1.68" height="7.64"/>
		<rect x="285.95" y="16.86" class="st0" width="1.68" height="1.6"/>
		<path class="st0" d="M289.44,22.7c0.13,0.27,0.32,0.48,0.55,0.65c0.23,0.17,0.48,0.32,0.78,0.4c0.29,0.1,0.59,0.19,0.9,0.25
			c0.29,0.06,0.61,0.13,0.9,0.19c0.27,0.04,0.55,0.13,0.78,0.21c0.23,0.08,0.42,0.19,0.57,0.34c0.15,0.13,0.23,0.32,0.23,0.52
			s-0.06,0.4-0.17,0.52c-0.13,0.13-0.27,0.23-0.44,0.29c-0.17,0.06-0.36,0.13-0.57,0.15c-0.21,0.04-0.38,0.04-0.55,0.04
			c-0.46,0-0.84-0.1-1.18-0.29c-0.34-0.19-0.52-0.52-0.57-1.03l-1.64-0.04c0.02,0.46,0.1,0.84,0.27,1.18
			c0.17,0.31,0.42,0.59,0.71,0.82c0.29,0.23,0.65,0.4,1.07,0.5s0.86,0.17,1.34,0.17c0.4,0,0.8-0.04,1.2-0.13
			c0.42-0.1,0.78-0.25,1.11-0.44c0.32-0.21,0.59-0.46,0.8-0.78c0.21-0.32,0.31-0.71,0.31-1.15c0-0.38-0.06-0.69-0.21-0.94
			c-0.15-0.25-0.34-0.46-0.57-0.63c-0.23-0.17-0.5-0.29-0.8-0.4c-0.29-0.1-0.59-0.19-0.9-0.25c-0.32-0.06-0.63-0.13-0.92-0.19
			c-0.29-0.04-0.57-0.13-0.8-0.21c-0.23-0.08-0.44-0.19-0.57-0.32s-0.21-0.29-0.21-0.5c0-0.15,0.04-0.29,0.15-0.4
			s0.21-0.17,0.36-0.23c0.15-0.04,0.29-0.08,0.46-0.11c0.17-0.02,0.29-0.02,0.42-0.02c0.38,0,0.71,0.06,1.01,0.21
			c0.29,0.15,0.46,0.42,0.55,0.82h1.76c-0.04-0.42-0.17-0.8-0.36-1.09c-0.19-0.29-0.44-0.55-0.71-0.73
			c-0.27-0.19-0.61-0.32-0.97-0.4s-0.73-0.13-1.13-0.13c-0.36,0-0.71,0.04-1.09,0.1s-0.71,0.19-1.03,0.36
			c-0.31,0.19-0.57,0.42-0.78,0.69c-0.19,0.27-0.29,0.61-0.29,1.03C289.23,22.11,289.29,22.45,289.44,22.7z"/>
		<path class="st0" d="M299.2,17.47h-1.68v2.29h-1.28l0.02,1.26h1.28v4.51c0,0.31,0.02,0.59,0.08,0.84
			c0.06,0.25,0.17,0.44,0.31,0.61c0.15,0.15,0.36,0.27,0.63,0.36c0.27,0.08,0.63,0.13,1.07,0.13c0.19,0,0.38,0,0.55-0.02
			c0.17-0.02,0.36-0.04,0.55-0.06v-1.3c-0.13,0.04-0.23,0.06-0.36,0.06c-0.13,0-0.23,0-0.36,0c-0.19,0-0.34-0.02-0.44-0.06
			c-0.13-0.02-0.19-0.11-0.25-0.19c-0.06-0.1-0.08-0.21-0.11-0.34c-0.02-0.13-0.02-0.29-0.02-0.46v-4.07h1.53v-1.26h-1.53V17.47z"/>
		<path class="st0" d="M305.69,19.53c-0.25,0-0.5,0.06-0.76,0.15c-0.25,0.1-0.46,0.23-0.67,0.4c-0.21,0.17-0.38,0.36-0.52,0.55
			c-0.15,0.19-0.25,0.4-0.29,0.61h-0.02v-1.47h-1.57l0.02,7.6h1.68v-3.63c0-0.42,0.06-0.78,0.17-1.11c0.1-0.32,0.25-0.59,0.44-0.82
			c0.19-0.23,0.4-0.4,0.65-0.5c0.25-0.1,0.5-0.17,0.8-0.17c0.1,0,0.23,0,0.36,0.02c0.1,0.02,0.23,0.04,0.36,0.06v-1.64
			c-0.08,0-0.15-0.02-0.23-0.02C306.03,19.53,305.88,19.53,305.69,19.53z"/>
		<path class="st0" d="M313.78,26.27c-0.15,0-0.25-0.04-0.31-0.13c-0.06-0.08-0.08-0.23-0.08-0.44l-0.06-3.88
			c0-0.4-0.08-0.73-0.25-1.03c-0.17-0.29-0.4-0.52-0.69-0.69c-0.29-0.17-0.63-0.29-0.99-0.38c-0.38-0.08-0.73-0.13-1.11-0.13
			c-0.42,0-0.84,0.04-1.24,0.13s-0.78,0.23-1.09,0.42c-0.32,0.19-0.57,0.46-0.78,0.78c-0.21,0.31-0.34,0.71-0.36,1.22h1.68
			c0.04-0.42,0.21-0.73,0.52-0.92c0.31-0.19,0.71-0.29,1.18-0.29c0.17,0,0.34,0.02,0.52,0.04s0.36,0.06,0.5,0.15
			c0.15,0.06,0.27,0.17,0.38,0.32c0.1,0.13,0.17,0.31,0.17,0.52c0,0.23-0.06,0.42-0.19,0.55c-0.13,0.13-0.29,0.21-0.5,0.27
			c-0.21,0.06-0.46,0.1-0.73,0.13c-0.25,0.02-0.55,0.06-0.86,0.13c-0.36,0.04-0.71,0.08-1.05,0.17c-0.34,0.06-0.67,0.19-0.94,0.36
			c-0.29,0.17-0.52,0.4-0.69,0.69c-0.17,0.29-0.25,0.67-0.25,1.15c0,0.38,0.06,0.71,0.21,0.99c0.15,0.27,0.34,0.52,0.59,0.69
			c0.25,0.19,0.52,0.34,0.84,0.42c0.32,0.11,0.65,0.15,0.99,0.15c0.46,0,0.92-0.08,1.41-0.23c0.48-0.15,0.9-0.38,1.24-0.71
			c0.06,0.34,0.21,0.57,0.44,0.71c0.23,0.15,0.52,0.21,0.86,0.21c0.08,0,0.15-0.02,0.25-0.02s0.19-0.02,0.29-0.04
			c0.1-0.02,0.21-0.04,0.29-0.06c0.11-0.02,0.17-0.04,0.23-0.06v-1.18c-0.08,0.02-0.17,0.02-0.23,0.02H313.78z M311.55,25.53
			c-0.13,0.17-0.29,0.31-0.48,0.44c-0.19,0.13-0.4,0.21-0.61,0.25c-0.21,0.06-0.42,0.08-0.61,0.08c-0.17,0-0.34-0.02-0.5-0.04
			c-0.19-0.04-0.36-0.08-0.5-0.17c-0.17-0.06-0.29-0.17-0.4-0.29c-0.11-0.15-0.17-0.29-0.17-0.48c0-0.21,0.02-0.4,0.11-0.55
			c0.06-0.17,0.17-0.29,0.29-0.38c0.13-0.1,0.27-0.17,0.44-0.23c0.19-0.04,0.36-0.1,0.52-0.13c0.36-0.08,0.73-0.13,1.11-0.17
			c0.38-0.02,0.69-0.13,0.94-0.29l0.04,1.28C311.74,25.14,311.68,25.37,311.55,25.53z"/>
		<path class="st0" d="M317.31,17.47h-1.68v2.29h-1.28v1.26h1.3v4.51c0,0.31,0.02,0.59,0.08,0.84c0.06,0.25,0.17,0.44,0.32,0.61
			c0.15,0.15,0.36,0.27,0.63,0.36c0.27,0.08,0.63,0.13,1.07,0.13c0.19,0,0.38,0,0.55-0.02c0.19-0.02,0.36-0.04,0.55-0.06v-1.3
			c-0.13,0.04-0.23,0.06-0.36,0.06c-0.13,0-0.23,0-0.36,0c-0.19,0-0.34-0.02-0.44-0.06c-0.13-0.02-0.19-0.11-0.25-0.19
			c-0.06-0.1-0.08-0.21-0.1-0.34c-0.02-0.13-0.02-0.29-0.02-0.46v-4.07h1.53v-1.26h-1.53V17.47z"/>
		<rect x="320.01" y="16.86" class="st0" width="1.68" height="1.6"/>
		<rect x="320.01" y="19.76" class="st0" width="1.68" height="7.64"/>
		<path class="st0" d="M329.82,20.66c-0.34-0.36-0.73-0.63-1.22-0.84c-0.48-0.19-1.03-0.29-1.64-0.29s-1.15,0.08-1.64,0.29
			c-0.48,0.21-0.88,0.48-1.22,0.84c-0.34,0.36-0.59,0.78-0.76,1.28s-0.25,1.03-0.25,1.62c0,0.61,0.08,1.13,0.25,1.64
			s0.42,0.92,0.76,1.28c0.34,0.36,0.73,0.63,1.22,0.84c0.48,0.19,1.03,0.29,1.64,0.29s1.13-0.08,1.64-0.29
			c0.48-0.21,0.88-0.48,1.22-0.84c0.34-0.36,0.59-0.78,0.76-1.28c0.17-0.5,0.25-1.05,0.25-1.64s-0.08-1.11-0.25-1.62
			C330.41,21.44,330.16,21.02,329.82,20.66z M329.02,24.59c-0.08,0.31-0.21,0.61-0.4,0.86c-0.19,0.25-0.42,0.46-0.69,0.61
			c-0.27,0.15-0.59,0.23-0.97,0.23s-0.71-0.08-0.97-0.23c-0.29-0.15-0.52-0.36-0.69-0.61c-0.19-0.25-0.32-0.55-0.4-0.86
			c-0.08-0.32-0.13-0.65-0.13-0.99c0-0.32,0.04-0.63,0.13-0.97c0.08-0.32,0.23-0.61,0.4-0.86c0.19-0.25,0.42-0.44,0.69-0.61
			c0.27-0.15,0.61-0.23,0.97-0.23c0.36,0,0.69,0.06,0.97,0.23c0.29,0.15,0.52,0.36,0.69,0.61c0.19,0.25,0.32,0.52,0.4,0.86
			c0.08,0.32,0.13,0.63,0.13,0.97C329.15,23.94,329.11,24.27,329.02,24.59z"/>
		<path class="st0" d="M338.16,20.18c-0.5-0.44-1.15-0.65-1.99-0.65c-0.52,0-0.97,0.1-1.39,0.36c-0.42,0.25-0.76,0.59-1.01,1.01
			l-0.02-0.02v-1.11h-1.6l0.02,7.66h1.68v-4.51c0-0.27,0.04-0.52,0.13-0.78c0.08-0.25,0.19-0.46,0.36-0.65
			c0.17-0.19,0.36-0.34,0.59-0.44c0.23-0.1,0.48-0.17,0.78-0.17c0.5,0,0.88,0.13,1.11,0.4c0.23,0.27,0.36,0.69,0.38,1.3v4.81h1.68
			v-5.25C338.87,21.27,338.66,20.62,338.16,20.18z"/>
		<path class="st0" d="M265.73,39.04v-0.02c0.48-0.21,0.86-0.5,1.11-0.88c0.27-0.38,0.4-0.84,0.4-1.36c0-0.88-0.29-1.53-0.86-1.97
			c-0.57-0.44-1.32-0.65-2.27-0.65h-5.12h-0.04v10.54h4.85c0.69,0,1.26-0.08,1.76-0.23c0.5-0.15,0.9-0.36,1.22-0.61
			c0.32-0.25,0.55-0.57,0.69-0.92c0.15-0.36,0.23-0.73,0.23-1.15c0-0.73-0.17-1.32-0.5-1.81C266.87,39.48,266.38,39.18,265.73,39.04
			z M260.84,35.63h3.02c0.5,0,0.9,0.13,1.15,0.34c0.27,0.21,0.4,0.59,0.4,1.11c0,0.48-0.15,0.84-0.44,1.09
			c-0.29,0.25-0.67,0.38-1.11,0.38h-3.02V35.63z M265.42,42.73c-0.29,0.29-0.73,0.44-1.3,0.44h-3.28v-3.32h3.28
			c0.55,0,0.99,0.15,1.3,0.42c0.29,0.29,0.46,0.69,0.46,1.22C265.88,42.04,265.73,42.44,265.42,42.73z"/>
		<path class="st0" d="M275.43,37.94c-0.34-0.36-0.73-0.63-1.22-0.84c-0.48-0.19-1.03-0.29-1.64-0.29c-0.61,0-1.15,0.08-1.64,0.29
			c-0.48,0.21-0.88,0.48-1.22,0.84s-0.59,0.78-0.76,1.28c-0.17,0.5-0.25,1.03-0.25,1.62c0,0.61,0.08,1.13,0.25,1.64
			c0.17,0.5,0.42,0.92,0.76,1.28c0.34,0.36,0.73,0.63,1.22,0.84c0.48,0.19,1.03,0.29,1.64,0.29c0.61,0,1.15-0.1,1.64-0.29
			c0.48-0.21,0.88-0.48,1.22-0.84c0.34-0.36,0.59-0.78,0.76-1.28c0.17-0.5,0.25-1.05,0.25-1.64c0-0.59-0.08-1.11-0.25-1.62
			C276.02,38.72,275.77,38.3,275.43,37.94z M274.64,41.87c-0.08,0.31-0.23,0.61-0.4,0.86c-0.19,0.25-0.42,0.44-0.69,0.61
			c-0.27,0.15-0.59,0.23-0.97,0.23c-0.38,0-0.69-0.08-0.97-0.23c-0.29-0.15-0.52-0.36-0.69-0.61c-0.19-0.25-0.31-0.55-0.4-0.86
			c-0.08-0.32-0.13-0.65-0.13-0.99c0-0.32,0.04-0.63,0.13-0.97c0.08-0.32,0.21-0.61,0.4-0.86c0.19-0.25,0.42-0.44,0.69-0.61
			c0.27-0.15,0.61-0.23,0.97-0.23c0.36,0,0.69,0.06,0.97,0.23c0.29,0.15,0.52,0.36,0.69,0.61c0.19,0.25,0.31,0.52,0.4,0.86
			c0.08,0.31,0.13,0.63,0.13,0.97C274.76,41.22,274.72,41.56,274.64,41.87z"/>
		<path class="st0" d="M284.57,43.55c-0.15,0-0.25-0.04-0.32-0.13c-0.06-0.08-0.08-0.23-0.08-0.44l-0.06-3.88
			c0-0.4-0.08-0.73-0.25-1.03c-0.17-0.29-0.4-0.52-0.69-0.69c-0.29-0.17-0.63-0.29-0.99-0.38c-0.38-0.08-0.73-0.13-1.11-0.13
			c-0.42,0-0.84,0.04-1.24,0.13s-0.78,0.23-1.09,0.42c-0.32,0.19-0.57,0.44-0.78,0.78c-0.21,0.32-0.34,0.71-0.36,1.22h1.68
			c0.04-0.42,0.21-0.73,0.52-0.92c0.31-0.19,0.71-0.29,1.18-0.29c0.17,0,0.34,0.02,0.52,0.04c0.19,0.02,0.36,0.06,0.5,0.15
			c0.15,0.06,0.27,0.17,0.38,0.31c0.1,0.13,0.17,0.32,0.17,0.52c0,0.23-0.06,0.42-0.19,0.55c-0.13,0.13-0.29,0.21-0.5,0.27
			c-0.21,0.06-0.46,0.1-0.73,0.13c-0.25,0.02-0.55,0.06-0.86,0.13c-0.36,0.04-0.71,0.08-1.05,0.17c-0.34,0.06-0.65,0.19-0.94,0.36
			c-0.29,0.17-0.52,0.4-0.69,0.69c-0.17,0.29-0.25,0.67-0.25,1.15c0,0.38,0.06,0.71,0.21,0.99c0.15,0.27,0.34,0.52,0.59,0.69
			c0.25,0.19,0.52,0.34,0.84,0.42c0.31,0.11,0.65,0.15,0.99,0.15c0.46,0,0.92-0.08,1.41-0.23s0.9-0.38,1.24-0.71
			c0.06,0.34,0.21,0.57,0.44,0.71s0.52,0.21,0.86,0.21c0.08,0,0.15-0.02,0.25-0.02s0.19-0.02,0.29-0.04
			c0.1-0.02,0.21-0.04,0.29-0.06c0.11-0.02,0.17-0.04,0.23-0.06v-1.18c-0.08,0.02-0.17,0.02-0.23,0.02H284.57z M282.34,42.82
			c-0.13,0.17-0.29,0.32-0.48,0.44c-0.19,0.13-0.4,0.21-0.61,0.25c-0.21,0.06-0.42,0.08-0.61,0.08c-0.17,0-0.34-0.02-0.5-0.04
			c-0.19-0.04-0.36-0.08-0.5-0.17c-0.17-0.06-0.29-0.17-0.4-0.29c-0.11-0.15-0.17-0.29-0.17-0.48c0-0.21,0.02-0.4,0.1-0.55
			c0.06-0.17,0.17-0.29,0.29-0.38c0.13-0.1,0.27-0.17,0.44-0.23c0.19-0.04,0.36-0.11,0.52-0.13c0.36-0.08,0.73-0.13,1.11-0.17
			c0.38-0.02,0.69-0.13,0.94-0.29l0.04,1.28C282.53,42.42,282.47,42.65,282.34,42.82z"/>
		<path class="st0" d="M289.76,36.81c-0.25,0-0.5,0.06-0.76,0.15c-0.23,0.1-0.46,0.23-0.67,0.4c-0.21,0.17-0.38,0.36-0.52,0.55
			c-0.15,0.19-0.25,0.4-0.29,0.61h-0.02v-1.47h-1.57l0.02,7.6h1.68v-3.63c0-0.42,0.06-0.78,0.17-1.11c0.11-0.32,0.25-0.59,0.44-0.82
			c0.19-0.23,0.4-0.4,0.65-0.5c0.25-0.1,0.5-0.17,0.8-0.17c0.1,0,0.23,0,0.36,0.02c0.1,0.02,0.23,0.04,0.36,0.06v-1.64
			c-0.08,0-0.15-0.02-0.23-0.02C290.09,36.81,289.94,36.81,289.76,36.81z"/>
		<path class="st0" d="M296.26,34.14v3.91h-0.02c-0.13-0.21-0.29-0.4-0.48-0.55c-0.19-0.15-0.4-0.29-0.63-0.38
			c-0.23-0.1-0.48-0.17-0.71-0.21c-0.23-0.04-0.48-0.06-0.71-0.06c-0.42,0-0.82,0.08-1.22,0.23c-0.4,0.15-0.76,0.4-1.07,0.71
			c-0.32,0.31-0.57,0.73-0.76,1.24s-0.27,1.09-0.27,1.78c0,0.57,0.08,1.09,0.23,1.6s0.38,0.94,0.67,1.3
			c0.29,0.36,0.65,0.65,1.11,0.86c0.46,0.21,0.97,0.31,1.57,0.31c0.5,0,0.94-0.1,1.39-0.29s0.76-0.5,0.99-0.94h0.02v1.05h1.6
			l-0.02-10.56H296.26z M296.2,41.87c-0.08,0.31-0.21,0.61-0.38,0.86c-0.17,0.25-0.4,0.44-0.67,0.61c-0.27,0.15-0.59,0.23-0.97,0.23
			c-0.36,0-0.69-0.08-0.94-0.23c-0.25-0.15-0.48-0.36-0.65-0.59c-0.17-0.23-0.29-0.52-0.38-0.84c-0.08-0.32-0.13-0.63-0.13-0.97
			c0-0.34,0.04-0.67,0.06-1.01c0.08-0.34,0.21-0.63,0.38-0.88c0.17-0.25,0.4-0.46,0.67-0.63c0.27-0.17,0.61-0.25,1.01-0.25
			c0.65,0,1.18,0.23,1.55,0.71c0.38,0.48,0.57,1.15,0.57,1.99C296.33,41.22,296.29,41.56,296.2,41.87z"/>
	</g>
	<g>
		<path class="st0" d="M21.39,27.78c-0.78-0.08-1.97-0.1-4.27-4.01l-2.25-4.22c-1.09-1.81-2.3-3.41-4.14-4.32v-0.08
			c3.65-0.67,5.25-3.18,5.25-5.79c0-2.43-1.42-6.34-7.29-6.34H0.03v0.36h0.34c0.88,0,2.33,0.52,2.33,2.72v18.93
			c0,2.17-1.4,2.72-2.69,2.74v0.28h7.97v-0.28c-1.09-0.03-2.72-0.41-2.72-2.74v-9.54c1.68,0,4.01,0.1,6.59,4.42l3,5.33
			c0.03,0.03,0.59,0.91,0.91,1.34c0.52,0.78,0.8,1.09,1.09,1.47h4.55V27.78z M6.67,14.82h-1.4V3.83C5.61,3.75,6.03,3.7,6.83,3.7
			c5.02,0,6.26,3.41,6.26,5.9C13.09,12.93,11.35,14.82,6.67,14.82z"/>
		<path class="st0" d="M32.9,27.75c-1.11,0-2.69-0.57-2.69-2.74V6.03c0-2.12,1.4-2.72,2.69-2.72V3.03h-7.94v0.28
			c1.09,0,2.69,0.39,2.69,2.72v18.98c0,2.15-1.47,2.74-2.69,2.74v0.28h7.94V27.75z"/>
		<path class="st0" d="M54.02,16.94c-1.53-1.42-3.54-1.76-5.59-1.94v-0.08c3.05-0.8,5.38-2.72,5.38-5.9c0-3.16-2.84-6-7.24-6H38.4
			v0.28h0.31c1.42,0,2.38,1.01,2.38,2.82v18.88c0,1.99-1.22,2.74-2.33,2.74h-0.34v0.28h9.31c0.41,0,3.26-0.03,5.02-1.01
			c1.34-0.78,3.31-2.59,3.31-5.51C56.07,19.68,55.29,18.13,54.02,16.94z M43.63,4.19c0.44-0.16,1.19-0.39,2.22-0.39
			c2.95,0,5.04,2.66,5.04,5.72c0,3.23-2.25,4.63-2.79,4.86c-0.49,0.23-1.19,0.41-2.84,0.41l-1.63,0.03V4.19z M52.16,24.98
			c-0.8,1.27-2.3,2.3-4.91,2.3c-3.62,0-3.62-1.71-3.62-3v-8.72h2.59c4.24,0,6.96,2.07,6.96,5.87
			C53.17,22.32,52.96,23.74,52.16,24.98z"/>
		<path class="st0" d="M63.31,26.02c0-0.52,0.23-1.5,0.41-2.02l2.74-8.35h6.72l3.13,8.82c0,0.03,0.03,0.13,0.08,0.21
			c0.23,0.78,0.31,1.32,0.31,1.53c0,1.63-1.53,1.53-2.61,1.53v0.28h8.17v-0.28c-1.22-0.1-2.15-0.18-3.36-3.62L71.43,2.97h-1.84
			h-2.51l-0.05,0.26c0.88,0,1.68,0.31,2.09,1.09l-6.62,19.91c-0.72,2.2-1.6,3.39-3.34,3.52v0.28h6.16v-0.28
			C64.29,27.75,63.31,27.54,63.31,26.02z M69.64,5.87h0.08l3.13,8.82h-6.1L69.64,5.87z"/>
		<path class="st0" d="M125.63,7.37c-1.06,0-1.5,1.01-1.66,1.37c-0.54,1.27-0.54,3.59-0.57,5.84v0.39v0.8
			c-0.03,1.01-0.28,1.76-0.78,2.25c-0.52,0.49-1.09,0.54-1.32,0.54c-1.09,0-1.86-0.98-2.15-1.81c0-0.36,0-0.47,0-0.47
			c0-0.36-0.28-0.47-0.36-0.52V8.95h-0.44V8.53h0.44V8.22h-0.44V7.86h0.44V7.55h-0.44V7.16h0.44V6.85h-0.44V6.47h0.44V6.16h-0.44
			V5.77h0.44V5.46h-0.44c0-0.13-0.03-0.23-0.03-0.36l0.47-0.05l-0.05-0.31l-0.47,0.08c-0.03-0.1-0.05-0.21-0.08-0.31l0.41-0.21
			l-0.16-0.26l-0.39,0.23c-0.05-0.1-0.1-0.21-0.18-0.28l0.28-0.28l-0.21-0.21l-0.26,0.28c-0.1-0.08-0.21-0.16-0.34-0.23l0.16-0.34
			l-0.28-0.13l-0.13,0.36c-0.13-0.05-0.26-0.08-0.41-0.08L116.74,3h-0.31v0.36c-0.16,0-0.28,0.03-0.41,0.05l-0.13-0.34l-0.28,0.13
			l0.13,0.31c-0.13,0.05-0.23,0.13-0.34,0.23l-0.23-0.28l-0.21,0.21l0.26,0.26c-0.08,0.08-0.16,0.21-0.21,0.31l-0.34-0.21
			l-0.16,0.26l0.39,0.18c-0.05,0.1-0.08,0.23-0.1,0.34l-0.41-0.08l-0.05,0.31l0.39,0.03c-0.03,0.13-0.03,0.23-0.03,0.36h-0.39v0.31
			h0.39v0.39h-0.39v0.31h0.39v0.39h-0.39v0.31h0.39v0.41h-0.39v0.31h0.39v0.36h-0.39v0.31h0.39v0.41h-0.39v0.34
			c0,0-0.52,0.34-0.8,0.78c-0.16-0.03-0.34-0.03-0.54,0.03c-0.44,0.13-1.06,0.26-1.53,0.26c-0.47,0-0.72-0.08-0.85-0.28
			c-0.08-0.13-0.13-0.34-0.26-0.54c-0.08-0.13-0.23-0.26-0.44-0.34c0,0-0.16-0.54-0.65-0.54h-0.03V4.53
			c0.26-0.03,0.47-0.23,0.47-0.49c0-0.13-0.05-0.23-0.13-0.34h0.67l0.88-2.97c0,0-0.44-0.13-0.91-0.23l-0.21,0.91
			c0,0-0.26-0.05-0.49-0.1l-0.18,0.96c0,0-0.39,0.03-0.67,0l0.13-0.98c0,0-0.28,0.03-0.39,0l0.13-1.24c0,0-0.44-0.03-0.72-0.03
			c-0.28,0-0.72,0.03-0.72,0.03l0.13,1.24c-0.1,0-0.39,0-0.39,0l0.13,0.98c-0.28,0.03-0.67,0-0.67,0l-0.16-0.96
			c-0.23,0.05-0.49,0.1-0.49,0.1l-0.21-0.91c-0.49,0.08-0.91,0.23-0.91,0.23l0.88,2.97h0.65c-0.08,0.08-0.13,0.21-0.13,0.34
			c0,0.26,0.21,0.49,0.49,0.49v4.11h-0.03c-0.52,0.03-0.65,0.54-0.65,0.54c-0.21,0.08-0.36,0.21-0.44,0.34
			c-0.13,0.18-0.16,0.39-0.26,0.54c-0.13,0.21-0.39,0.28-0.85,0.28c-0.44,0-1.09-0.13-1.53-0.26c-0.18-0.05-0.36-0.05-0.54-0.03
			c-0.28-0.47-0.75-0.78-0.75-0.78V8.95h-0.41V8.56h0.41V8.25h-0.41V7.89h0.41V7.55h-0.41V7.16h0.41V6.85h-0.41V6.47h0.41V6.16
			h-0.41V5.77h0.41V5.46h-0.41c0-0.13-0.03-0.23-0.03-0.36l0.44-0.05l-0.05-0.31l-0.44,0.08c-0.03-0.1-0.05-0.21-0.1-0.31l0.41-0.21
			l-0.16-0.26l-0.39,0.23c-0.05-0.1-0.13-0.21-0.18-0.28l0.31-0.28l-0.23-0.21l-0.26,0.31c-0.1-0.08-0.21-0.18-0.34-0.23l0.16-0.34
			L99.8,3.1l-0.13,0.34c-0.13-0.05-0.26-0.08-0.41-0.08L99.28,3h-0.31L99,3.36c-0.16,0-0.28,0.03-0.41,0.05l-0.13-0.34l-0.28,0.13
			l0.16,0.31c-0.13,0.05-0.23,0.13-0.34,0.21l-0.23-0.26l-0.23,0.21l0.26,0.26c-0.08,0.1-0.16,0.21-0.21,0.31l-0.34-0.21l-0.16,0.26
			l0.39,0.18c-0.03,0.1-0.08,0.23-0.1,0.34l-0.44-0.08l-0.05,0.31l0.41,0.05c-0.03,0.13-0.03,0.23-0.03,0.36h-0.41v0.31h0.41v0.39
			h-0.41v0.31h0.41v0.39h-0.41v0.31h0.41v0.39h-0.41v0.31h0.41v0.36h-0.41v0.31h0.41v0.39h-0.44v6.85
			c-0.08,0.05-0.36,0.16-0.36,0.52c0,0,0,0.13,0,0.47c-0.28,0.83-1.03,1.81-2.12,1.81c-0.23,0-0.8-0.05-1.32-0.54
			c-0.52-0.49-0.78-1.27-0.78-2.25l-0.03-0.8v-0.39c-0.03-2.25-0.03-4.6-0.57-5.84C91.5,8.35,91.08,7.37,90,7.37
			c-0.47,0-0.85,0.34-0.85,0.78c0,0.41,0.34,0.78,0.78,0.78c0.08,0,0.18-0.03,0.26-0.05l0.03-0.03c0.34-0.13,0.54-0.03,0.72,0.31
			c0.49,1.01,0.52,3.26,0.52,5.09V15v0.83c0.03,2.79,1.81,3.54,2.84,3.54c0.52,0,0.96-0.08,1.32-0.28c0.21-0.08,0.78-0.21,0.91-0.21
			c0,0.83-0.16,2.56,0.03,3.41c0.05,0.23,0.1,0.39,0.16,0.52c-0.39,0-0.72,0.08-0.93,0.18c-0.23,0.1-0.34,0.08-0.47,0
			c-0.13-0.08-0.31-0.16-0.49-0.1c-0.62,0.16-0.34,1.01-0.26,1.34c0.08,0.34,0.05,0.83,0.03,1.66c-0.03,0.7,0.05,1.16,0.1,1.45
			c0.13,0.59,0.67,0.72,1.03,0.7c0.26-0.03,0.44-0.16,0.54-0.28c0.18,0.08,0.28,0.21,0.31,0.28c0.03,0.13,0.05,0.13,0.1,0.08
			c0.05-0.08,0.08-0.13,0.08-0.23c0-0.05,0-0.16-0.05-0.23c0.1-0.05,0.08,0,0.16-0.1c0.03-0.05,0.13,0,0.21,0.05
			c0.08,0.05,0.23,0.18,0.34,0.41c0.05,0.13,0.21,0,0.26-0.13c0.03-0.08,0.03-0.23,0.03-0.36c0.1,0.03,0.31,0.13,0.39,0.47
			c0.03,0.1-0.03,0.21,0.1,0.1c0.13-0.08,0.21-0.36,0.18-0.54c-0.03-0.23-0.18-0.41-0.39-0.44c-0.21-0.44-0.52-0.52-0.7-0.57
			c-0.1-0.03-0.28-0.03-0.47,0.03c-0.28,0-0.75-0.08-0.8-0.39c-0.05-0.31-0.05-0.72-0.05-0.88c0.03-0.26,0.26-0.57,0.36-0.67
			c0.1-0.1,0.18-0.16,0.44-0.13c0.26,0.03,1.01,0.31,1.55,0.26c0.41-0.03,0.91-0.34,0.78-1.32c0.28-0.59,0.47-1.45,0.47-2.02
			c0-0.57-0.03-1.09-0.08-1.47c0.16,0.13,0.41,0.16,0.96,0.16c0.28,0,0.65-0.1,0.85-0.23c0.23-0.13,0.28-0.03,0.31,0.16
			c0.05,0.7-0.05,1.47-0.05,1.47c0,0.16,0.03,0.34,0.13,0.41c0.1,0.08,0.26,0.05,0.39,0c0.16-0.05,0.36-0.03,0.54-0.03
			c0.28-0.03,0.52-0.08,0.98-0.1c0.41-0.03,1.45,0.05,1.94,0.05c0.41,0,0.67-0.28,0.78-0.52v3.7c-0.26,0-0.49,0.23-0.49,0.49
			c0,0.18,0.08,0.34,0.23,0.41h-0.72v2.17h4.73v-2.17h-0.7c0.13-0.1,0.23-0.26,0.23-0.41c0-0.26-0.21-0.49-0.47-0.49v-3.75
			c0.13,0.23,0.39,0.52,0.8,0.52c0.49,0,1.53-0.08,1.94-0.05c0.47,0.03,0.7,0.08,0.98,0.1c0.16,0,0.39-0.03,0.54,0.03
			c0.13,0.05,0.26,0.05,0.39,0c0.1-0.08,0.16-0.26,0.13-0.41c0,0-0.1-0.78-0.05-1.47c0.03-0.18,0.08-0.28,0.31-0.16
			c0.23,0.13,0.57,0.23,0.85,0.23c0.54,0,0.8-0.03,0.96-0.16c-0.05,0.41-0.08,0.91-0.08,1.47s0.18,1.45,0.47,2.02
			c-0.13,1.01,0.36,1.29,0.78,1.32c0.52,0.05,1.29-0.21,1.55-0.26c0.26-0.03,0.34,0.03,0.44,0.13c0.1,0.1,0.36,0.41,0.36,0.67
			c0,0.16,0,0.57-0.05,0.88c-0.05,0.31-0.52,0.39-0.8,0.39c-0.18-0.05-0.36-0.05-0.47-0.03c-0.18,0.05-0.49,0.13-0.7,0.57
			c-0.21,0.05-0.36,0.23-0.39,0.44c-0.03,0.18,0.05,0.44,0.18,0.54c0.13,0.1,0.08,0,0.1-0.1c0.08-0.34,0.28-0.44,0.39-0.47
			c-0.03,0.13-0.03,0.28,0.03,0.36c0.05,0.16,0.21,0.28,0.26,0.13c0.08-0.23,0.26-0.36,0.34-0.41c0.08-0.05,0.18-0.1,0.21-0.05
			c0.05,0.08,0.05,0.05,0.16,0.1c-0.03,0.08-0.03,0.16-0.03,0.23c0,0.1,0.03,0.18,0.08,0.23c0.05,0.05,0.08,0.05,0.1-0.08
			c0-0.08,0.1-0.21,0.28-0.28c0.1,0.13,0.28,0.26,0.54,0.28c0.36,0.03,0.93-0.1,1.03-0.7c0.05-0.26,0.13-0.72,0.1-1.45
			c-0.03-0.8-0.05-1.32,0.03-1.66c0.08-0.34,0.34-1.19-0.26-1.34c-0.18-0.05-0.36,0.03-0.49,0.1c-0.13,0.08-0.23,0.1-0.47,0
			c-0.23-0.1-0.54-0.18-0.96-0.18c0.08-0.13,0.1-0.28,0.16-0.52c0.18-0.88,0.03-2.59,0.03-3.41c0.1-0.03,0.7,0.1,0.91,0.21
			c0.39,0.21,0.8,0.28,1.34,0.28c1.03,0,2.82-0.75,2.84-3.54v-0.83V14.2c0.03-1.84,0.03-4.09,0.52-5.09
			c0.18-0.34,0.39-0.41,0.72-0.31l0.03,0.03c0.08,0.03,0.18,0.05,0.26,0.05c0.44,0,0.78-0.34,0.78-0.78
			C126.49,7.71,126.13,7.37,125.63,7.37z M100.45,5.43c0,0.39-0.16,0.62-0.26,0.72c0.05-0.7-0.26-0.96-0.26-0.96
			c0.16,0.03,0.34-0.03,0.41-0.08C100.34,5.12,100.45,5.02,100.45,5.43z M99.2,3.88c0.52,0,0.98,0.34,1.16,0.8
			c0,0.03,0,0.05-0.03,0.05h-0.67c-0.03,0-0.05,0.03-0.05,0.05v0.39c0,0.03-0.03,0.05-0.05,0.05h-0.39h-0.34
			c-0.03,0-0.05-0.03-0.05-0.05V4.78c0-0.03-0.03-0.05-0.05-0.05h-0.67c-0.03,0-0.03-0.03-0.03-0.05
			C98.22,4.22,98.66,3.88,99.2,3.88z M99.85,6.18c0,0.39-0.16,0.52-0.31,0.54c-0.16,0.03-0.39-0.08-0.39-0.28
			c0,0.21-0.21,0.31-0.36,0.28c-0.16-0.03-0.34-0.16-0.34-0.54s0.1-0.62,0.21-0.78c0,0.13,0.08,0.23,0.18,0.28
			C99,5.74,99.15,5.87,99.15,6c0-0.13,0.16-0.26,0.31-0.31c0.1-0.05,0.16-0.16,0.18-0.28C99.77,5.56,99.85,5.79,99.85,6.18z
			 M98.09,6.16c-0.1-0.1-0.26-0.36-0.26-0.72c0-0.41,0.1-0.31,0.1-0.31c0.1,0.05,0.26,0.1,0.41,0.08
			C98.38,5.2,98.07,5.46,98.09,6.16z M99.41,8.02l-0.18,0.23c-0.03,0.03-0.08,0.03-0.1,0l-0.18-0.23c-0.03-0.03-0.05-0.08-0.1-0.08
			l-0.26-0.03c-0.03,0-0.08-0.05-0.08-0.08l-0.08-0.59c0-0.03,0-0.08,0.05-0.13l0.03-0.03c0.03-0.03,0.08-0.05,0.13-0.05
			c0.39,0.05,0.67,0.05,1.09,0c0.03,0,0.08,0.03,0.13,0.05l0.03,0.03c0.03,0.03,0.05,0.08,0.05,0.13l-0.08,0.59
			c0,0.03-0.03,0.08-0.08,0.08l-0.26,0.03C99.49,7.94,99.44,7.97,99.41,8.02z M106.45,18.1c-0.03-0.03-0.05-0.03-0.08-0.03
			c-0.13,0-0.41,0.13-0.67,0.49c-0.08,0-0.16,0.03-0.23,0.08c-0.23,0.18-0.26,0.54-0.03,0.85c-0.05,0.05-0.08,0.13-0.08,0.21
			c-0.05,0.08-0.1,0.18-0.16,0.28c-0.21,0.18-0.49,0.36-0.65,0.39c-0.36,0.05-0.67,0.03-1.01-0.05c-0.36-0.08-0.39-0.26-0.31-0.49
			c0.05-0.23,0.13-0.85,0.1-1.29c0-0.23-0.08-0.62-0.41-0.75c-0.05-0.16-0.16-0.28-0.28-0.39c-0.31-0.23-0.93-0.36-1.5-0.34
			c-0.47,0.03-1.06,0.18-1.24,0.41c0-0.57,0-1.19,0-1.29c0-0.16,0-0.26-0.1-0.36c-0.1-0.1-0.16-0.18-0.16-0.34
			c0.05-0.05,0.05-0.23,0.05-0.23c0.47-0.16,0.34-0.41,0.34-0.41c0.49-0.1,0.54-0.54,0.54-0.54c0.47-0.23,0.36-0.65,0.36-0.65
			c0.05-0.05,0.16-0.13,0.18-0.26c0.03-0.13,0.08-0.49,0.08-0.65c0-0.13,0.16-0.31,0.28-0.39c0.49-0.34,1.11-0.49,1.42-0.54
			c0.13,0.03,0.26,0.03,0.39,0.03c0.31,0.03,0.67-0.03,1.09-0.1c0.47-0.1,0.67-0.08,0.8-0.05c0.13,0.05,0.34,0.16,0.52,0.52
			c0,0,0.26,0.54,0.72,0.54h0.03V18.1z M116.58,3.88c0.52,0,0.98,0.34,1.14,0.8c0,0.03,0,0.05-0.03,0.05h-0.67
			c-0.03,0-0.05,0.03-0.05,0.05v0.39c0,0.03-0.03,0.05-0.05,0.05h-0.34h-0.36c-0.03,0-0.05-0.03-0.05-0.05V4.78
			c0-0.03-0.03-0.05-0.05-0.05h-0.67c-0.03,0-0.03-0.03-0.03-0.05C115.6,4.22,116.04,3.88,116.58,3.88z M115.37,5.12
			c0.08,0.05,0.26,0.1,0.41,0.08c0,0-0.31,0.26-0.26,0.96c-0.1-0.1-0.26-0.36-0.26-0.72C115.26,5.02,115.37,5.12,115.37,5.12z
			 M115.94,15.8c-0.1,0.1-0.1,0.21-0.1,0.36c0,0.1,0,0.72,0,1.29c-0.21-0.23-0.78-0.39-1.24-0.41c-0.59-0.05-1.19,0.1-1.5,0.34
			c-0.13,0.1-0.23,0.23-0.28,0.39c-0.31,0.13-0.41,0.54-0.41,0.75c-0.03,0.44,0.05,1.06,0.1,1.29c0.08,0.23,0.03,0.41-0.31,0.49
			c-0.34,0.08-0.65,0.13-1.01,0.05c-0.16-0.03-0.44-0.21-0.65-0.39c-0.03-0.1-0.1-0.21-0.16-0.28c-0.03-0.08-0.05-0.16-0.08-0.21
			c0.23-0.31,0.21-0.67-0.03-0.85c-0.08-0.05-0.16-0.08-0.23-0.08c-0.23-0.36-0.54-0.49-0.67-0.49c-0.03,0-0.05,0-0.08,0v-5.33h0.03
			c0.47,0,0.72-0.54,0.72-0.54c0.18-0.36,0.39-0.47,0.52-0.52c0.16-0.05,0.34-0.05,0.8,0.05c0.39,0.08,0.78,0.13,1.06,0.1
			c0.16,0,0.28-0.03,0.39-0.03c0.31,0.05,0.96,0.21,1.42,0.54c0.1,0.1,0.28,0.26,0.28,0.39c0,0.16,0.03,0.52,0.08,0.65
			c0.05,0.13,0.16,0.23,0.21,0.26c0,0-0.1,0.41,0.36,0.65c0,0,0.03,0.44,0.54,0.54c0,0-0.16,0.26,0.34,0.41c0,0,0,0.18,0.05,0.23
			C116.09,15.62,116.04,15.7,115.94,15.8z M117.2,7.84c0,0.03-0.03,0.08-0.08,0.08l-0.26,0.03c-0.03,0-0.08,0.05-0.1,0.08
			l-0.18,0.23c-0.03,0.03-0.08,0.03-0.1,0l-0.16-0.23c-0.03-0.03-0.05-0.08-0.1-0.08l-0.26-0.03c-0.03,0-0.08-0.05-0.08-0.08
			l-0.08-0.59c0-0.03,0.03-0.08,0.05-0.13l0.03-0.03c0.03-0.03,0.08-0.05,0.1-0.05c0.44,0.05,0.72,0.05,1.11,0
			c0.03,0,0.08,0.03,0.1,0.05l0.03,0.03c0.03,0.03,0.05,0.08,0.05,0.13L117.2,7.84z M116.94,6.72c-0.16,0.03-0.36-0.08-0.36-0.28
			c0,0.21-0.21,0.31-0.36,0.28c-0.16-0.03-0.31-0.16-0.31-0.54s0.1-0.62,0.21-0.78c0,0.13,0.08,0.23,0.18,0.28
			c0.1,0.05,0.28,0.18,0.28,0.31c0-0.13,0.16-0.26,0.31-0.31c0.1-0.05,0.18-0.16,0.18-0.28c0.13,0.16,0.21,0.39,0.21,0.78
			S117.13,6.7,116.94,6.72z M117.62,6.16c0.05-0.7-0.26-0.96-0.26-0.96c0.16,0.03,0.34-0.03,0.41-0.08c0,0,0.1-0.1,0.1,0.31
			C117.88,5.82,117.72,6.05,117.62,6.16z"/>
		<path class="st0" d="M6.63,43.2c-0.52,0.44-1.16,0.65-1.92,0.65c-0.62,0-1.2-0.16-1.73-0.48c-0.53-0.32-0.92-0.8-1.18-1.45
			c-0.25-0.65-0.38-1.4-0.38-2.27c0-0.67,0.11-1.32,0.32-1.95s0.58-1.14,1.11-1.51c0.53-0.38,1.18-0.56,1.96-0.56
			c0.68,0,1.24,0.17,1.69,0.51c0.45,0.34,0.79,0.88,1.03,1.62l1.33-0.31c-0.27-0.94-0.76-1.67-1.45-2.19
			c-0.69-0.52-1.55-0.78-2.57-0.78c-0.9,0-1.72,0.2-2.47,0.61c-0.75,0.41-1.32,1.01-1.73,1.8c-0.4,0.79-0.61,1.71-0.61,2.77
			c0,0.97,0.18,1.88,0.54,2.73c0.36,0.85,0.88,1.49,1.57,1.94C2.84,44.78,3.73,45,4.82,45c1.06,0,1.96-0.29,2.69-0.87
			c0.73-0.58,1.24-1.42,1.52-2.53l-1.35-0.34C7.51,42.11,7.15,42.76,6.63,43.2z"/>
		<path class="st0" d="M15.42,37.61c-0.4-0.22-0.88-0.32-1.42-0.32c-0.89,0-1.62,0.34-2.21,1.01v-3.65h-1.25v10.18h1.25v-4.03
			c0-0.58,0.07-1.03,0.21-1.36c0.14-0.33,0.37-0.59,0.7-0.78c0.33-0.19,0.67-0.29,1.04-0.29c0.5,0,0.88,0.14,1.15,0.43
			c0.27,0.28,0.41,0.74,0.41,1.36v4.67h1.25v-4.67c0-0.72-0.09-1.27-0.26-1.65C16.11,38.12,15.82,37.82,15.42,37.61z"/>
		<path class="st0" d="M24.42,41.74v-1.67c0-0.56-0.02-0.94-0.06-1.15c-0.07-0.34-0.2-0.63-0.39-0.85
			c-0.19-0.22-0.47-0.41-0.87-0.56c-0.39-0.15-0.9-0.22-1.53-0.22c-0.63,0-1.19,0.09-1.67,0.26c-0.48,0.17-0.85,0.42-1.1,0.74
			c-0.25,0.32-0.44,0.74-0.55,1.27l1.22,0.17c0.13-0.52,0.34-0.89,0.62-1.09c0.28-0.21,0.71-0.31,1.3-0.31
			c0.63,0,1.1,0.14,1.42,0.42c0.24,0.21,0.35,0.57,0.35,1.08c0,0.05,0,0.16-0.01,0.33c-0.48,0.17-1.22,0.31-2.23,0.43
			c-0.5,0.06-0.87,0.12-1.11,0.19c-0.33,0.09-0.63,0.23-0.9,0.41c-0.27,0.18-0.48,0.42-0.65,0.72c-0.16,0.3-0.25,0.63-0.25,0.99
			c0,0.62,0.22,1.12,0.65,1.52c0.44,0.4,1.06,0.59,1.87,0.59c0.49,0,0.95-0.08,1.38-0.24c0.43-0.16,0.87-0.44,1.34-0.83
			c0.04,0.35,0.12,0.65,0.25,0.91h1.31c-0.16-0.28-0.26-0.58-0.32-0.89C24.44,43.63,24.42,42.9,24.42,41.74z M23.15,41.58
			c0,0.55-0.07,0.97-0.2,1.25c-0.18,0.37-0.45,0.65-0.83,0.86c-0.37,0.21-0.8,0.32-1.28,0.32c-0.49,0-0.86-0.11-1.11-0.33
			c-0.25-0.22-0.38-0.5-0.38-0.83c0-0.22,0.06-0.42,0.17-0.59c0.12-0.18,0.28-0.31,0.49-0.41c0.21-0.09,0.58-0.18,1.09-0.25
			c0.91-0.13,1.59-0.29,2.04-0.47V41.58z"/>
		<path class="st0" d="M28.26,37.54c-0.24,0.17-0.51,0.51-0.8,1.03v-1.12h-1.12v7.37h1.25v-3.86c0-0.53,0.07-1.01,0.21-1.46
			c0.09-0.29,0.25-0.52,0.47-0.68c0.22-0.16,0.46-0.25,0.74-0.25c0.31,0,0.61,0.09,0.92,0.27l0.43-1.16
			c-0.44-0.27-0.86-0.4-1.28-0.4C28.77,37.29,28.5,37.37,28.26,37.54z"/>
		<path class="st0" d="M33.27,43.76c-0.18,0-0.33-0.03-0.43-0.09c-0.1-0.06-0.17-0.14-0.22-0.24c-0.04-0.1-0.07-0.33-0.07-0.69
			v-4.31h1.26v-0.97h-1.26v-2.58l-1.24,0.75v1.83H30.4v0.97h0.92v4.24c0,0.75,0.05,1.24,0.15,1.48c0.1,0.23,0.28,0.42,0.53,0.57
			c0.25,0.14,0.6,0.22,1.06,0.22c0.28,0,0.59-0.04,0.94-0.11l-0.18-1.1C33.59,43.74,33.41,43.76,33.27,43.76z"/>
		<path class="st0" d="M38.06,37.29c-1.02,0-1.85,0.34-2.49,1.03c-0.64,0.69-0.96,1.65-0.96,2.89c0,1.2,0.32,2.13,0.95,2.79
			s1.49,1,2.57,1c0.86,0,1.56-0.21,2.11-0.62c0.55-0.42,0.93-1,1.13-1.76l-1.29-0.16c-0.19,0.53-0.45,0.91-0.77,1.15
			c-0.32,0.24-0.72,0.36-1.17,0.36c-0.62,0-1.13-0.22-1.54-0.65c-0.41-0.43-0.64-1.05-0.69-1.86h5.5c0.01-0.15,0.01-0.26,0.01-0.33
			c0-1.22-0.31-2.16-0.94-2.83C39.85,37.62,39.05,37.29,38.06,37.29z M35.98,40.43c0.04-0.64,0.26-1.16,0.65-1.54
			c0.39-0.38,0.87-0.58,1.45-0.58c0.63,0,1.15,0.24,1.55,0.72c0.26,0.31,0.42,0.78,0.47,1.39H35.98z"/>
		<path class="st0" d="M44.85,37.54c-0.24,0.17-0.51,0.51-0.8,1.03v-1.12h-1.12v7.37h1.25v-3.86c0-0.53,0.07-1.01,0.21-1.46
			c0.09-0.29,0.25-0.52,0.47-0.68c0.22-0.16,0.46-0.25,0.74-0.25c0.31,0,0.61,0.09,0.92,0.27l0.43-1.16
			c-0.44-0.27-0.86-0.4-1.28-0.4C45.36,37.29,45.09,37.37,44.85,37.54z"/>
		<path class="st0" d="M50.71,37.29c-1.02,0-1.85,0.34-2.49,1.03c-0.64,0.69-0.96,1.65-0.96,2.89c0,1.2,0.32,2.13,0.95,2.79
			s1.49,1,2.57,1c0.86,0,1.56-0.21,2.11-0.62c0.55-0.42,0.93-1,1.13-1.76l-1.29-0.16c-0.19,0.53-0.45,0.91-0.77,1.15
			c-0.32,0.24-0.72,0.36-1.17,0.36c-0.62,0-1.13-0.22-1.54-0.65c-0.41-0.43-0.64-1.05-0.69-1.86h5.5c0.01-0.15,0.01-0.26,0.01-0.33
			c0-1.22-0.31-2.16-0.94-2.83C52.5,37.62,51.69,37.29,50.71,37.29z M48.62,40.43c0.04-0.64,0.26-1.16,0.65-1.54
			c0.39-0.38,0.87-0.58,1.45-0.58c0.63,0,1.15,0.24,1.55,0.72c0.26,0.31,0.42,0.78,0.47,1.39H48.62z"/>
		<path class="st0" d="M60.29,38.3c-0.22-0.3-0.5-0.54-0.85-0.73c-0.35-0.19-0.74-0.28-1.19-0.28c-0.61,0-1.15,0.16-1.65,0.48
			c-0.49,0.32-0.86,0.78-1.1,1.38s-0.37,1.27-0.37,2c0,0.75,0.14,1.42,0.41,2c0.27,0.58,0.65,1.03,1.15,1.36
			c0.49,0.32,1.03,0.49,1.62,0.49c0.91,0,1.59-0.37,2.06-1.1v0.93h1.16V34.65h-1.24V38.3z M59.82,43.3
			c-0.38,0.45-0.85,0.67-1.39,0.67c-0.54,0-1.01-0.23-1.41-0.7c-0.4-0.47-0.6-1.17-0.6-2.12c0-0.98,0.19-1.69,0.56-2.14
			c0.37-0.45,0.84-0.68,1.39-0.68c0.57,0,1.05,0.24,1.44,0.71c0.39,0.47,0.58,1.21,0.58,2.22C60.39,42.17,60.2,42.85,59.82,43.3z"/>
		<path class="st0" d="M69.61,34.65L65.7,44.83h1.43l1.12-3.08h4.26l1.19,3.08h1.53l-4.17-10.18H69.61z M68.64,40.65l1.12-2.99
			c0.24-0.64,0.42-1.29,0.55-1.94c0.16,0.55,0.4,1.25,0.72,2.11l1.06,2.82H68.64z"/>
		<path class="st0" d="M78.05,37.54c-0.24,0.17-0.51,0.51-0.8,1.03v-1.12h-1.12v7.37h1.25v-3.86c0-0.53,0.07-1.01,0.21-1.46
			c0.09-0.29,0.25-0.52,0.47-0.68c0.22-0.16,0.46-0.25,0.74-0.25c0.31,0,0.61,0.09,0.92,0.27l0.43-1.16
			c-0.44-0.27-0.86-0.4-1.28-0.4C78.56,37.29,78.29,37.37,78.05,37.54z"/>
		<path class="st0" d="M85.06,43.51c-0.33,0.3-0.74,0.45-1.23,0.45c-0.61,0-1.11-0.22-1.49-0.67c-0.38-0.45-0.57-1.17-0.57-2.16
			c0-0.98,0.2-1.69,0.59-2.14c0.39-0.45,0.9-0.68,1.53-0.68c0.42,0,0.77,0.12,1.07,0.38c0.29,0.25,0.5,0.62,0.61,1.12l1.22-0.19
			c-0.14-0.75-0.47-1.32-0.98-1.73c-0.51-0.4-1.16-0.61-1.96-0.61c-0.63,0-1.22,0.15-1.76,0.45c-0.54,0.3-0.94,0.75-1.2,1.34
			c-0.26,0.6-0.4,1.29-0.4,2.09c0,1.23,0.31,2.18,0.92,2.84c0.61,0.66,1.42,0.99,2.43,0.99c0.81,0,1.48-0.24,2.04-0.72
			c0.55-0.48,0.9-1.14,1.03-1.99l-1.23-0.16C85.6,42.75,85.39,43.21,85.06,43.51z"/>
		<path class="st0" d="M92.87,37.61c-0.4-0.22-0.88-0.32-1.42-0.32c-0.89,0-1.62,0.34-2.21,1.01v-3.65h-1.25v10.18h1.25v-4.03
			c0-0.58,0.07-1.03,0.21-1.36c0.14-0.33,0.37-0.59,0.7-0.78c0.33-0.19,0.67-0.29,1.04-0.29c0.5,0,0.88,0.14,1.15,0.43
			c0.27,0.28,0.41,0.74,0.41,1.36v4.67h1.25v-4.67c0-0.72-0.09-1.27-0.26-1.65C93.56,38.12,93.27,37.82,92.87,37.61z"/>
		<rect x="95.9" y="37.45" class="st0" width="1.25" height="7.37"/>
		<rect x="95.9" y="34.65" class="st0" width="1.25" height="1.44"/>
		<path class="st0" d="M101.23,43.76c-0.18,0-0.33-0.03-0.43-0.09c-0.1-0.06-0.17-0.14-0.22-0.24c-0.04-0.1-0.07-0.33-0.07-0.69
			v-4.31h1.26v-0.97h-1.26v-2.58l-1.24,0.75v1.83h-0.92v0.97h0.92v4.24c0,0.75,0.05,1.24,0.15,1.48c0.1,0.23,0.28,0.42,0.53,0.57
			c0.25,0.14,0.6,0.22,1.06,0.22c0.28,0,0.59-0.04,0.94-0.11l-0.18-1.1C101.55,43.74,101.37,43.76,101.23,43.76z"/>
		<path class="st0" d="M106.03,37.29c-1.02,0-1.85,0.34-2.49,1.03c-0.64,0.69-0.96,1.65-0.96,2.89c0,1.2,0.32,2.13,0.95,2.79
			c0.63,0.66,1.49,1,2.56,1c0.86,0,1.56-0.21,2.11-0.62c0.55-0.42,0.93-1,1.13-1.76l-1.29-0.16c-0.19,0.53-0.45,0.91-0.77,1.15
			s-0.71,0.36-1.17,0.36c-0.62,0-1.13-0.22-1.54-0.65c-0.41-0.43-0.64-1.05-0.69-1.86h5.5c0-0.15,0.01-0.26,0.01-0.33
			c0-1.22-0.31-2.16-0.94-2.83C107.82,37.62,107.01,37.29,106.03,37.29z M103.95,40.43c0.04-0.64,0.26-1.16,0.65-1.54
			c0.39-0.38,0.87-0.58,1.45-0.58c0.63,0,1.15,0.24,1.55,0.72c0.26,0.31,0.42,0.78,0.47,1.39H103.95z"/>
		<path class="st0" d="M115.1,43.51c-0.33,0.3-0.74,0.45-1.23,0.45c-0.61,0-1.11-0.22-1.49-0.67c-0.38-0.45-0.57-1.17-0.57-2.16
			c0-0.98,0.2-1.69,0.59-2.14c0.39-0.45,0.9-0.68,1.53-0.68c0.42,0,0.77,0.12,1.07,0.38c0.29,0.25,0.5,0.62,0.61,1.12l1.21-0.19
			c-0.14-0.75-0.47-1.32-0.98-1.73c-0.51-0.4-1.16-0.61-1.96-0.61c-0.63,0-1.22,0.15-1.76,0.45c-0.54,0.3-0.94,0.75-1.21,1.34
			c-0.26,0.6-0.4,1.29-0.4,2.09c0,1.23,0.31,2.18,0.92,2.84c0.61,0.66,1.42,0.99,2.43,0.99c0.81,0,1.48-0.24,2.04-0.72
			c0.55-0.48,0.9-1.14,1.03-1.99l-1.23-0.16C115.63,42.75,115.42,43.21,115.1,43.51z"/>
		<path class="st0" d="M120.2,43.76c-0.18,0-0.33-0.03-0.43-0.09c-0.1-0.06-0.17-0.14-0.22-0.24c-0.04-0.1-0.07-0.33-0.07-0.69
			v-4.31h1.26v-0.97h-1.26v-2.58l-1.24,0.75v1.83h-0.92v0.97h0.92v4.24c0,0.75,0.05,1.24,0.15,1.48c0.1,0.23,0.28,0.42,0.53,0.57
			c0.25,0.14,0.6,0.22,1.06,0.22c0.28,0,0.59-0.04,0.94-0.11l-0.18-1.1C120.52,43.74,120.34,43.76,120.2,43.76z"/>
	</g>
</g>
</svg>
